<svg width="12" height="12" viewBox="0 0 12 12" fill="none" xmlns="http://www.w3.org/2000/svg">
<path fill-rule="evenodd" clip-rule="evenodd" d="M10.4122 1.21784C10.1193 0.924946 9.64441 0.924946 9.35152 1.21784L5.88185 4.68751L2.41218 1.21784C2.11929 0.924946 1.64441 0.924946 1.35152 1.21784C1.05863 1.51073 1.05863 1.98561 1.35152 2.2785L4.82119 5.74817L1.21979 9.34957C0.926899 9.64246 0.926899 10.1173 1.21979 10.4102C1.51269 10.7031 1.98756 10.7031 2.28045 10.4102L5.88185 6.80883L9.48325 10.4102C9.77614 10.7031 10.251 10.7031 10.5439 10.4102C10.8368 10.1173 10.8368 9.64246 10.5439 9.34957L6.94251 5.74817L10.4122 2.2785C10.7051 1.98561 10.7051 1.51073 10.4122 1.21784Z" fill="white"/>
</svg>
