<svg width="25" height="23" viewBox="0 0 25 23" fill="none" xmlns="http://www.w3.org/2000/svg">
<path d="M22.408 9.49399C22.408 9.01608 22.0144 8.62251 21.5365 8.62251C21.0586 8.62251 20.665 9.01608 20.665 9.49399C20.665 9.97191 21.0586 10.3655 21.5365 10.3655C22.0285 10.3655 22.408 9.98596 22.408 9.49399Z" fill="#127BAF"/>
<path d="M4.68096 9.0023C4.68096 8.52439 4.28738 8.13081 3.80947 8.13081C3.33156 8.13081 2.93799 8.52439 2.93799 9.0023C2.93799 9.48021 3.33156 9.87378 3.80947 9.87378C4.28738 9.87378 4.68096 9.48021 4.68096 9.0023Z" fill="#127BAF"/>
<path d="M13.945 18.1105C13.945 18.1105 13.1157 20.3455 14.3667 20.6406C15.3788 20.8796 14.9852 18.5744 14.5776 18.0965C14.1699 17.6186 13.945 18.1105 13.945 18.1105Z" fill="#127BAF"/>
<path d="M8.40756 3.71739C8.40756 3.71739 7.83126 1.41218 6.63648 1.87603C5.66661 2.25555 7.29713 3.92824 7.90154 4.09691C8.4919 4.25153 8.40756 3.71739 8.40756 3.71739Z" fill="#127BAF"/>
<path d="M10.5568 17.4639C10.5568 17.4639 9.29173 18.743 9.03872 17.506C8.79976 16.255 9.01061 15.6225 8.3078 14.9197C7.61904 14.2169 6.59294 14.6104 7.12708 13.4578C7.66121 12.3052 5.7074 10.492 5.55278 9.5221C5.41222 8.55222 5.32788 7.54018 7.12708 7.70885C8.92627 7.86347 9.5588 7.31528 9.5588 6.20484C9.5588 5.0944 10.7255 4.05424 11.5126 4.39159C12.2998 4.72894 12.7917 3.42171 13.4524 3.07031C14.113 2.71891 14.2395 3.50605 14.1411 4.09641C14.0427 4.68677 14.7596 5.68476 16.2636 5.24902C17.7676 4.82733 16.6572 6.06428 17.2756 7.31528C17.8941 8.58034 18.2315 7.09038 18.9624 8.45383C19.6793 9.83134 19.1451 11.9819 19.8198 12.9659C20.4945 13.9357 20.5507 14.7791 19.5527 14.6807C18.5688 14.5823 17.4303 14.5542 16.7134 15.2008C16.0106 15.8474 17.4865 17.5622 16.5728 17.7731C16.109 17.8855 15.7295 17.6747 15.6732 16.761C15.603 15.7349 13.6632 15.5803 13.3259 17.2671C12.9042 19.4177 11.9343 17.5201 11.5829 17.1687C11.2315 16.8173 10.5568 17.4639 10.5568 17.4639Z" fill="#127BAF"/>
<path d="M7.47815 10.4633C7.47815 10.4633 6.26931 9.84482 7.11269 9.38097C7.95606 8.93117 8.46208 8.93117 8.81349 8.28458C9.16489 7.62394 8.64481 6.99141 9.60063 7.10386C10.5424 7.23037 11.4139 5.41712 12.0745 5.09383C12.7352 4.77054 13.438 4.48941 13.7332 5.81069C14.0283 7.13198 14.5625 7.46933 15.3496 7.21631C16.1508 6.9633 17.1629 7.56772 17.0926 8.2143C17.0223 8.84683 18.0625 8.91711 18.4701 9.31069C18.8777 9.70426 18.3295 9.97133 17.8797 10.0416C17.4299 10.0978 16.8817 10.8428 17.5283 11.8267C18.1749 12.8107 17.0364 12.2906 16.2773 13.0075C15.5183 13.7384 16.6568 13.64 15.8416 14.4693C14.9982 15.2986 13.3255 15.397 12.7773 16.0998C12.2291 16.8026 11.6388 17.0275 11.4982 16.2966C11.3436 15.5657 11.1046 14.7504 10.4862 14.385C9.8677 14.0195 8.9681 15.4673 8.6167 14.8629C8.43397 14.5536 8.50425 14.2444 9.13678 13.9914C9.85364 13.7103 9.53035 12.2765 8.25124 12.4171C6.60666 12.5998 7.75927 11.4753 7.92795 11.138C8.08256 10.8006 7.47815 10.4633 7.47815 10.4633Z" fill="#0868A4"/>
<path d="M8.68552 13.9778C8.68552 13.9778 10.5409 14.287 8.57307 16.5219C6.59115 18.7428 5.24175 19.4316 5.804 21.4135C6.36625 23.3954 8.27789 21.9476 8.306 19.9938C8.33412 18.0541 10.316 14.8211 11.3 15.8754C12.2839 16.9296 13.0429 16.9999 13.4365 16.1705C13.8301 15.3412 14.9546 15.7067 14.4907 16.8593C14.0269 18.0119 13.9285 19.0942 14.9546 19.4035C15.9807 19.6986 15.7417 18.279 15.4184 17.4637C15.0951 16.6344 14.9968 15.0179 16.6976 15.7207C18.4124 16.4095 17.3863 17.7589 17.4285 18.9818C17.4566 20.2047 19.4666 21.3854 19.8321 19.7408C20.1975 18.0962 17.555 16.9015 18.0188 14.5962C18.4827 12.291 21.0831 11.1946 22.3341 12.5581C23.5851 13.9075 25.2718 11.9256 24.1192 11.3774C22.9666 10.8151 20.071 12.3332 19.4104 10.9135C18.7498 9.49385 19.6915 9.46574 20.5349 9.36734C21.3783 9.26895 22.9526 8.52397 22.1654 7.54004C21.3783 6.5561 19.6494 9.94365 18.061 8.72076C17.0771 7.96172 18.3843 7.06213 17.7377 6.59827C17.0771 6.13442 15.4044 6.89345 15.6293 5.67056C15.8542 4.44768 17.7658 4.22278 17.8642 3.028C18.0048 1.3272 15.7277 1.01796 15.559 2.07218C15.3903 3.12639 15.8823 4.51796 14.1393 5.33322C12.3964 6.16253 11.047 4.18061 11.047 2.83121C11.047 1.48182 8.82608 0.413548 8.92448 2.53603C9.02287 4.65852 10.7096 5.15048 10.1052 6.68261C9.51484 8.21473 5.804 9.29706 4.37027 7.46976C2.93654 5.64245 0.954615 5.68462 0.757829 6.781C0.561042 7.86333 2.24779 8.66453 4.31405 8.66453C6.39436 8.66453 8.02488 9.99987 7.23773 10.7448C6.45059 11.4898 4.59517 11.6304 3.58312 11.5179C2.02289 11.3493 1.50281 13.795 3.23172 13.8513C4.96063 13.8934 7.94054 11.0119 7.98271 12.0802C8.01082 12.9095 7.82809 13.7529 8.68552 13.9778Z" fill="#26A2CF"/>
<path d="M8.6524 14.175L8.65264 14.1751L8.65358 14.1752L8.66395 14.1773C8.6738 14.1795 8.68914 14.183 8.70866 14.1883C8.74794 14.1991 8.80278 14.2167 8.86317 14.2436C8.98682 14.2988 9.11688 14.3855 9.19657 14.516C9.27152 14.6387 9.31832 14.8267 9.22924 15.1242C9.13808 15.4286 8.90555 15.8416 8.42338 16.3893C8.00344 16.8598 7.61248 17.2607 7.25946 17.6227C7.19912 17.6846 7.13988 17.7453 7.0818 17.8051C6.68627 18.212 6.34015 18.5773 6.07355 18.9386C5.80533 19.302 5.61104 19.6697 5.52493 20.0848C5.43865 20.5007 5.46423 20.9486 5.61159 21.4681C5.7605 21.993 6.01257 22.34 6.34846 22.486C6.68823 22.6337 7.05267 22.5497 7.36426 22.3473C7.98077 21.9467 8.49113 21.029 8.50598 19.9967M8.6524 14.175L15.4184 17.4637M8.6524 14.175L8.65221 14.175L8.65193 14.1749L8.65186 14.1749L8.64362 14.1735L8.63478 14.1712C8.3873 14.1063 8.19953 13.992 8.0648 13.8317C7.93179 13.6733 7.86309 13.4851 7.82663 13.2929C7.79044 13.1022 7.78403 12.8963 7.78381 12.6951C7.78373 12.6264 7.78436 12.5589 7.78497 12.4919C7.78622 12.3565 7.78744 12.2235 7.78285 12.0876M8.6524 14.175L8.68552 13.9778C7.97318 13.7909 7.97877 13.1772 7.98493 12.4993C7.98619 12.3613 7.98747 12.2205 7.98271 12.0802M8.50598 19.9967L8.306 19.9938M8.50598 19.9967C8.50598 19.9967 8.50598 19.9967 8.50598 19.9967L8.306 19.9938M8.50598 19.9967C8.51931 19.0778 9.00219 17.8222 9.61018 16.924C9.91445 16.4744 10.2346 16.1379 10.5201 15.9751C10.6612 15.8946 10.7807 15.864 10.8783 15.8697C10.9703 15.8751 11.0622 15.9137 11.1538 16.0118C11.6534 16.5471 12.1302 16.8729 12.5646 16.9277C12.7895 16.9561 13.0006 16.9112 13.1851 16.7895C13.3662 16.6701 13.5083 16.4858 13.6172 16.2563C13.7761 15.9214 14.045 15.8777 14.198 15.9517C14.3386 16.0197 14.5154 16.2623 14.3052 16.7846C14.0698 17.3695 13.9143 17.9652 13.9649 18.4677C13.9906 18.7228 14.0703 18.9617 14.2266 19.161C14.3837 19.3613 14.6074 19.5077 14.8969 19.595L14.8993 19.5957L14.8993 19.5957C15.1929 19.6801 15.4515 19.6558 15.6386 19.4887C15.8139 19.3323 15.8768 19.0921 15.8921 18.8634C15.9231 18.4008 15.7709 17.8101 15.6045 17.3905M8.306 19.9938C8.27789 21.9476 6.36625 23.3954 5.804 21.4135C5.36184 19.8549 6.10194 19.096 7.40218 17.7628C7.75531 17.4007 8.14976 16.9963 8.57307 16.5219L14.9546 19.4035C13.9285 19.0942 14.0269 18.0119 14.4907 16.8593C14.9546 15.7067 13.8301 15.3412 13.4365 16.1705C13.0429 16.9999 12.2839 16.9296 11.3 15.8754C10.316 14.8211 8.33412 18.0541 8.306 19.9938ZM15.6045 17.3905C15.6045 17.3903 15.6044 17.3901 15.6044 17.39L15.4184 17.4637M15.6045 17.3905C15.6046 17.3907 15.6047 17.3909 15.6048 17.3911L15.4184 17.4637M15.6045 17.3905C15.5299 17.1989 15.4676 16.9597 15.4416 16.7209C15.4152 16.4795 15.4276 16.2549 15.4876 16.084C15.5453 15.92 15.6414 15.8156 15.7908 15.7719C15.9528 15.7246 16.2148 15.7377 16.6212 15.9056L16.623 15.9063L16.623 15.9063C17.0247 16.0677 17.2411 16.2575 17.3578 16.4518C17.4749 16.6467 17.5077 16.8726 17.4907 17.1382C17.4759 17.3696 17.4251 17.6128 17.3699 17.8773C17.3606 17.9219 17.3511 17.9671 17.3417 18.013C17.2783 18.322 17.2173 18.656 17.2286 18.9875M15.4184 17.4637C15.0951 16.6344 14.9968 15.0179 16.6976 15.7207C17.9222 16.2126 17.749 17.0414 17.5652 17.9205C17.4917 18.2723 17.4164 18.6322 17.4285 18.9818M17.2286 18.9875C17.2285 18.9871 17.2285 18.9868 17.2285 18.9864L17.4285 18.9818M17.2286 18.9875C17.2286 18.9879 17.2286 18.9883 17.2286 18.9887L17.4285 18.9818M17.2286 18.9875C17.2371 19.346 17.3895 19.6887 17.6061 19.9697C17.8232 20.2513 18.1147 20.4841 18.4233 20.6197C18.7298 20.7544 19.0762 20.8022 19.3841 20.6722C19.7002 20.5388 19.9262 20.2392 20.0273 19.7842C20.1322 19.3125 20.0176 18.8811 19.8167 18.4781C19.6497 18.1432 19.4139 17.8112 19.1806 17.4827C19.1376 17.4221 19.0946 17.3616 19.0522 17.3013C18.4955 16.5093 18.0012 15.6979 18.2149 14.6357C18.4336 13.5487 19.1555 12.75 19.9638 12.3836C20.7742 12.0163 21.6361 12.0932 22.1867 12.6933L22.1874 12.6941C22.5347 13.0686 22.9274 13.2255 23.3058 13.22C23.6784 13.2145 24.0158 13.0521 24.2627 12.8272C24.5071 12.6045 24.6823 12.3023 24.7021 11.9958C24.7121 11.8398 24.6816 11.6817 24.5967 11.5388C24.512 11.396 24.38 11.2801 24.206 11.1972C23.8643 11.0309 23.4185 11.0269 22.9717 11.0682C22.6799 11.0952 22.362 11.145 22.0488 11.1941C21.8806 11.2204 21.7137 11.2466 21.5529 11.2689C21.0787 11.3346 20.6459 11.3691 20.2968 11.3088C19.957 11.25 19.721 11.1068 19.5917 10.8291C19.4324 10.4867 19.382 10.2528 19.3886 10.0952C19.3947 9.95028 19.4485 9.86605 19.5299 9.80404C19.6221 9.73378 19.7617 9.68389 19.9491 9.64704C20.098 9.61775 20.2585 9.59977 20.4281 9.58076C20.4709 9.57597 20.5142 9.57111 20.5581 9.56599C21.0101 9.51326 21.6518 9.29084 22.0868 8.94174C22.305 8.76661 22.4914 8.54324 22.5559 8.27326C22.6229 7.99225 22.549 7.6994 22.3216 7.4151C22.1903 7.25096 22.0243 7.16446 21.8344 7.15853C21.6572 7.153 21.4819 7.2185 21.3206 7.30527C21.0698 7.44019 20.7911 7.66321 20.5125 7.88609C20.4382 7.94548 20.364 8.00485 20.2903 8.06254C19.9256 8.34821 19.5604 8.60556 19.1995 8.72374C18.8528 8.83724 18.5186 8.82066 18.183 8.56228C17.9733 8.40045 17.9028 8.24721 17.8846 8.10822C17.8649 7.95747 17.9026 7.79623 17.963 7.61074C17.9739 7.57733 17.986 7.54204 17.9985 7.50544C18.0488 7.35865 18.1063 7.19082 18.1216 7.03889C18.1319 6.93668 18.126 6.82626 18.0827 6.71754C18.0387 6.60699 17.9619 6.51299 17.8543 6.43576L17.8526 6.43458C17.6385 6.28421 17.3607 6.24338 17.1086 6.22988C16.9791 6.22295 16.8462 6.22301 16.7204 6.22334L16.7019 6.22339C16.581 6.22372 16.4673 6.22403 16.3603 6.21926C16.1242 6.20872 15.9759 6.17383 15.8956 6.10982C15.8403 6.06569 15.7769 5.97342 15.826 5.70674C15.8726 5.45321 16.0069 5.24468 16.2007 5.05141C16.3945 4.85829 16.6362 4.69114 16.8941 4.51278L16.9079 4.50324C17.1639 4.32627 17.4371 4.13638 17.6506 3.91028C17.8682 3.67976 18.0342 3.40111 18.0635 3.04441M17.4285 18.9818C17.4566 20.2047 19.4666 21.3854 19.8321 19.7408C20.0005 18.9831 19.5303 18.3209 19.0197 17.6016C18.422 16.7596 17.7687 15.8394 18.0188 14.5962C18.4827 12.291 21.0831 11.1946 22.3341 12.5581L17.8642 3.028M18.0635 3.04441L17.8642 3.028M18.0635 3.04441C18.0635 3.04443 18.0635 3.04445 18.0635 3.04447L17.8642 3.028M18.0635 3.04441C18.1432 2.08055 17.528 1.50284 16.8808 1.32417C16.5606 1.23577 16.2192 1.24016 15.9367 1.35155C15.6487 1.46515 15.4169 1.6947 15.3615 2.04058C15.3205 2.29683 15.3163 2.57022 15.3123 2.83287C15.3119 2.85819 15.3116 2.88341 15.3111 2.9085C15.3063 3.20047 15.2974 3.48217 15.2434 3.75319C15.1899 4.02118 15.093 4.27405 14.9143 4.50589C14.7355 4.73792 14.4667 4.95928 14.0546 5.15205L14.0534 5.15261C13.277 5.52201 12.5927 5.27444 12.0816 4.75848C11.5613 4.23322 11.247 3.45016 11.247 2.83121C11.247 2.43879 11.086 2.07608 10.8573 1.79193C10.6292 1.5086 10.3228 1.28943 10.0087 1.19085C9.6945 1.09221 9.34376 1.10853 9.07985 1.34919C8.82186 1.58444 8.69887 1.98831 8.72469 2.54529C8.77339 3.59567 9.19496 4.27225 9.54079 4.82728C9.56366 4.86399 9.5862 4.90016 9.60827 4.93587C9.78812 5.2268 9.92943 5.47453 9.99566 5.73594C10.0596 5.98834 10.0555 6.26354 9.91915 6.60921L9.91857 6.6107C9.79218 6.93873 9.48809 7.26425 9.05433 7.54018C8.62383 7.81404 8.08346 8.0273 7.51517 8.13977C6.36659 8.3671 5.17656 8.17338 4.52762 7.3463C3.78393 6.39846 2.88462 5.91833 2.12316 5.83032C1.74308 5.78639 1.38811 5.83961 1.10738 5.99383C0.82227 6.15045 0.621646 6.40804 0.561017 6.74543M17.8642 3.028C18.0048 1.3272 15.7277 1.01796 15.559 2.07218C15.5204 2.31343 15.5164 2.57234 15.5123 2.83797C15.4985 3.7331 15.4834 4.70452 14.1393 5.33322C12.3964 6.16253 11.047 4.18061 11.047 2.83121C11.047 1.48182 8.82608 0.413548 8.92448 2.53603C8.9707 3.53307 9.36741 4.17031 9.71248 4.72459C10.102 5.35025 10.4257 5.8702 10.1052 6.68261C9.51484 8.21473 5.804 9.29706 4.37027 7.46976C2.93654 5.64245 0.954615 5.68462 0.757829 6.781M0.561017 6.74543C0.56103 6.74536 0.561042 6.74529 0.561055 6.74522L0.757829 6.781M0.561017 6.74543C0.561003 6.74551 0.560989 6.74559 0.560975 6.74567L0.757829 6.781M0.561017 6.74543C0.438427 7.42033 0.915426 7.95809 1.59614 8.30666C2.28722 8.66054 3.25888 8.86453 4.31405 8.86453C5.31546 8.86453 6.19999 9.18692 6.73119 9.58532C6.99876 9.786 7.15837 9.99193 7.21531 10.1673C7.26681 10.3259 7.23943 10.4679 7.10026 10.5996C6.75146 10.9297 6.1406 11.1431 5.46205 11.2556C4.79126 11.3669 4.09283 11.3733 3.60521 11.3192L3.60462 11.3191C2.69704 11.221 2.10047 11.8886 1.97723 12.5644C1.91516 12.9048 1.96737 13.2689 2.17589 13.5566C2.38823 13.8496 2.74235 14.0355 3.22522 14.0512L3.22684 14.0512C3.70801 14.0629 4.25393 13.8732 4.78305 13.6229C5.31264 13.3723 5.85287 13.0472 6.33143 12.7592L6.34287 12.7523C6.83327 12.4572 7.24546 12.2104 7.53705 12.099C7.67364 12.0469 7.74687 12.0398 7.77707 12.0431M0.757829 6.781C0.561042 7.86333 2.24779 8.66453 4.31405 8.66453C6.39436 8.66453 8.02488 9.99987 7.23773 10.7448C6.45059 11.4898 4.59517 11.6304 3.58312 11.5179C2.02289 11.3493 1.50281 13.795 3.23172 13.8513C4.09399 13.8723 5.26744 13.1661 6.23242 12.5853C7.20229 12.0017 7.96157 11.5447 7.98271 12.0802M7.77707 12.0431C7.77485 12.0348 7.77308 12.0325 7.77398 12.0339C7.77786 12.0398 7.7839 12.0433 7.78575 12.0443C7.78627 12.0446 7.78646 12.0447 7.7862 12.0447C7.78377 12.044 7.78073 12.0435 7.77707 12.0431ZM7.77707 12.0431C7.77928 12.0513 7.78194 12.0653 7.78285 12.0876M7.78285 12.0876C7.78284 12.0874 7.78283 12.0872 7.78283 12.087L7.98271 12.0802M7.78285 12.0876C7.78285 12.0877 7.78286 12.0879 7.78287 12.0881L7.98271 12.0802" stroke="#ADE8FF" stroke-opacity="0.8" stroke-width="0.4"/>
<path d="M13.0855 15.1864C13.0855 14.9897 12.9309 14.835 12.7341 14.835C12.5373 14.835 12.3827 14.9897 12.3827 15.1864C12.3827 15.3832 12.5373 15.5378 12.7341 15.5378C12.9309 15.5238 13.0855 15.3692 13.0855 15.1864Z" fill="#4FE3FF"/>
<path d="M16.6559 2.42444C16.6559 2.2136 16.4872 2.04492 16.2764 2.04492C16.0655 2.04492 15.8969 2.2136 15.8969 2.42444C15.8969 2.63528 16.0655 2.80396 16.2764 2.80396C16.4872 2.80396 16.6559 2.63528 16.6559 2.42444Z" fill="#4FE3FF"/>
<path d="M2.27637 7.30164C2.27637 7.09079 2.10769 6.92212 1.89685 6.92212C1.68601 6.92212 1.51733 7.09079 1.51733 7.30164C1.51733 7.51248 1.68601 7.68115 1.89685 7.68115C2.10769 7.68115 2.27637 7.51248 2.27637 7.30164Z" fill="#4FE3FF"/>
<path d="M7.74365 20.8507C7.74365 20.6399 7.57498 20.4712 7.36414 20.4712C7.15329 20.4712 6.98462 20.6399 6.98462 20.8507C6.98462 21.0616 7.15329 21.2302 7.36414 21.2302C7.57498 21.2302 7.74365 21.0616 7.74365 20.8507Z" fill="#4FE3FF"/>
<path d="M18.8492 19.2767C18.8492 19.0659 18.6806 18.8972 18.4697 18.8972C18.2589 18.8972 18.0902 19.0659 18.0902 19.2767C18.0902 19.4876 18.2589 19.6562 18.4697 19.6562C18.6806 19.6562 18.8492 19.4735 18.8492 19.2767Z" fill="#4FE3FF"/>
<path d="M18.3277 10.4347C18.3277 10.4347 18.5105 9.5351 18.0185 9.49293C17.6249 9.46482 17.9061 10.3082 18.0888 10.4769C18.2715 10.6315 18.3277 10.4347 18.3277 10.4347Z" fill="#4FE3FF"/>
<path d="M7.88441 11.5184C8.37638 11.6027 8.0812 12.924 8.27799 13.3316C8.47477 13.7393 9.13541 13.7814 9.34626 14.3999C9.12136 14.0626 8.67156 13.9782 8.67156 13.9782C7.81413 13.7533 7.99686 12.9099 7.96875 12.0806C7.94064 11.3919 6.7318 12.3196 5.41052 13.0646C5.43863 13.0505 7.39245 11.434 7.88441 11.5184Z" fill="#4FE3FF"/>
<path d="M18.4401 8.91748C18.4401 8.91748 17.3718 8.69258 17.3718 8.20061C17.3858 7.70865 17.8637 6.87933 17.1469 6.75283C16.43 6.62632 15.4461 6.85122 15.3617 5.88134C15.2774 4.91147 16.5284 4.51789 16.5284 4.51789C16.1067 4.82713 15.7132 5.16448 15.6148 5.6705C15.3899 6.89339 17.0625 6.13435 17.7232 6.59821C18.3838 7.06206 17.0766 7.97572 18.0465 8.72069C18.187 8.80503 18.3135 8.86126 18.4401 8.91748Z" fill="#4FE3FF"/>
<path d="M10.0606 11.2518C10.0606 11.2518 9.10476 12.3623 10.4401 12.3763C11.5365 12.3904 10.1871 14.1193 11.0726 14.5831C11.9019 15.0189 12.675 13.3884 13.3638 13.8663C14.0525 14.3442 14.2634 14.8362 14.6429 14.2598C14.9803 13.7538 15.3317 13.037 16.0766 13.6414C16.8216 14.2317 17.6228 13.7538 17.0325 12.9386C16.4421 12.1233 17.3136 11.547 17.3979 10.6615C17.4823 9.76187 17.0887 9.38235 16.3437 9.38235C15.5987 9.38235 15.9501 8.45464 15.8377 7.94862C15.7252 7.44259 15.177 7.94862 14.7694 7.70966C14.3477 7.47071 14.8537 6.90846 14.7413 6.543C14.6288 6.19159 13.406 6.0932 13.6309 6.9928C13.8558 7.89239 13.0827 8.96066 12.661 7.94862C12.2393 6.93657 11.9441 5.68557 11.3538 5.98075C10.7634 6.27593 10.8196 6.69762 11.3819 7.49882C11.9441 8.30002 11.2975 9.10123 10.5244 9.045C9.75135 8.98878 8.26139 9.10122 8.7393 9.8462C9.21721 10.5912 9.96219 9.69159 10.3698 10.0008C10.7775 10.296 10.0606 11.2518 10.0606 11.2518Z" fill="#1E8EC0"/>
<path d="M9.90349 11.1279L9.89555 11.1375C9.88779 11.1469 9.877 11.1603 9.86398 11.1771C9.83802 11.2107 9.80281 11.2583 9.7651 11.3155C9.69174 11.4268 9.60007 11.5877 9.55593 11.7589C9.51193 11.9295 9.50622 12.1528 9.67067 12.3305C9.82576 12.4981 10.0868 12.5726 10.4377 12.5763M9.90349 11.1279L10.4401 12.3763M9.90349 11.1279L9.90687 11.1233C9.91143 11.117 9.91831 11.1075 9.92706 11.095C9.94457 11.0702 9.96945 11.0339 9.99821 10.9894C10.0562 10.8996 10.1278 10.7794 10.1867 10.6527C10.247 10.523 10.2868 10.4015 10.294 10.3058C10.301 10.2138 10.2774 10.1808 10.2525 10.1628L10.2525 10.1628L10.2489 10.1602C10.2164 10.1355 10.1659 10.1219 10.0527 10.1464C9.99719 10.1585 9.93598 10.1777 9.86529 10.2017C9.84577 10.2084 9.82511 10.2156 9.80373 10.223C9.75175 10.2411 9.69548 10.2606 9.64077 10.2778C9.4865 10.3261 9.29691 10.3722 9.10368 10.3381C8.89746 10.3018 8.71606 10.1804 8.57097 9.95419C8.49861 9.84141 8.45292 9.72439 8.44731 9.60496C8.44151 9.48157 8.47938 9.37153 8.54705 9.27996C8.67322 9.10923 8.89496 9.01222 9.109 8.95251C9.54991 8.82951 10.1416 8.81663 10.5389 8.84553C10.8534 8.86839 11.1376 8.71636 11.2855 8.48555C11.4275 8.26395 11.4551 7.95133 11.2182 7.6137C10.9379 7.21438 10.7491 6.86554 10.7358 6.55871C10.7286 6.39465 10.7713 6.24368 10.869 6.11114C10.9634 5.98314 11.1005 5.88377 11.2643 5.80186C11.3675 5.75029 11.476 5.72713 11.5862 5.7405C11.6955 5.75376 11.7904 5.80094 11.8709 5.86375C12.0252 5.98427 12.1469 6.17893 12.2497 6.38534C12.3548 6.59663 12.4529 6.84735 12.549 7.10208C12.5693 7.15607 12.5896 7.21026 12.6099 7.26448C12.6867 7.46946 12.7636 7.67489 12.8456 7.87169C12.9424 8.10409 13.0331 8.15042 13.0649 8.15737C13.0897 8.16282 13.1502 8.15769 13.2368 8.05707C13.4101 7.85591 13.5344 7.43151 13.4368 7.0413C13.3702 6.77469 13.4035 6.54528 13.5343 6.37273C13.6608 6.20593 13.8519 6.12779 14.0298 6.101C14.2086 6.07407 14.398 6.09467 14.555 6.14982C14.6996 6.20059 14.8743 6.30235 14.9318 6.48204L14.9318 6.48204L14.9325 6.48418C14.9764 6.62716 14.956 6.77336 14.9286 6.8911C14.9124 6.96127 14.8868 7.04497 14.8644 7.11844C14.852 7.15912 14.8406 7.19668 14.8322 7.22706C14.8032 7.33196 14.7937 7.40111 14.8008 7.44868C14.8054 7.47961 14.8161 7.50623 14.868 7.53566L14.868 7.53564L14.8706 7.53712C14.9265 7.56994 14.9936 7.58167 15.0818 7.57694C15.1501 7.57327 15.214 7.56164 15.2875 7.54824C15.317 7.54287 15.3481 7.53721 15.3816 7.53166C15.4798 7.51545 15.6213 7.49578 15.7506 7.54402C15.9057 7.60192 15.9949 7.73401 16.0329 7.90523C16.0673 8.0598 16.0647 8.23662 16.0593 8.39306C16.0582 8.42534 16.0569 8.45693 16.0557 8.48784C16.0506 8.61656 16.046 8.73373 16.0531 8.84217C16.062 8.97818 16.088 9.06028 16.1242 9.10693C16.1508 9.14117 16.2027 9.18235 16.3437 9.18235C16.7462 9.18235 17.0984 9.28492 17.3325 9.55304C17.5648 9.81918 17.6417 10.2043 17.597 10.6801L17.597 10.6804C17.5731 10.932 17.4936 11.1563 17.4052 11.3569C17.3621 11.4547 17.3157 11.5493 17.2721 11.6382L17.2691 11.6442C17.224 11.7362 17.1822 11.8218 17.1457 11.9059C17.0724 12.0749 17.0286 12.2213 17.0286 12.3634C17.0286 12.4997 17.0691 12.6482 17.1944 12.8213C17.3585 13.0478 17.442 13.2728 17.4369 13.4803C17.4316 13.6941 17.3315 13.8724 17.1669 13.9831C16.8474 14.1977 16.3629 14.1234 15.9524 13.7981L15.9524 13.7981L15.9506 13.7967C15.7838 13.6614 15.6603 13.6175 15.572 13.6114C15.4878 13.6056 15.4098 13.6322 15.3267 13.6943C15.2399 13.7593 15.1553 13.8576 15.0673 13.9809C15.0103 14.0607 14.9589 14.1404 14.9059 14.2227C14.8748 14.2709 14.8432 14.3199 14.8096 14.3703C14.708 14.5246 14.592 14.6497 14.442 14.6988C14.2789 14.7521 14.1325 14.6989 14.0171 14.6303C13.9118 14.5677 13.8006 14.473 13.6898 14.3786C13.6836 14.3733 13.6774 14.368 13.6712 14.3627C13.5488 14.2585 13.4131 14.1439 13.2498 14.0306C13.1523 13.9629 13.053 13.9602 12.9112 14.0215C12.7577 14.0879 12.5935 14.2137 12.3966 14.3646L12.3925 14.3677C12.2052 14.5111 11.989 14.6762 11.7612 14.7721C11.5242 14.8719 11.2549 14.9049 10.9796 14.7602M9.90349 11.1279L11.0726 14.5831M10.4377 12.5763C10.4378 12.5763 10.4379 12.5763 10.438 12.5763L10.4401 12.3763M10.4377 12.5763C10.4377 12.5763 10.4376 12.5763 10.4375 12.5763L10.4401 12.3763M10.4377 12.5763C10.5502 12.5778 10.6044 12.6011 10.63 12.6192C10.6518 12.6348 10.6704 12.6588 10.6826 12.7089C10.6958 12.7636 10.6985 12.8392 10.6894 12.9404C10.6803 13.0405 10.6612 13.1517 10.6387 13.2752C10.6356 13.2922 10.6324 13.3094 10.6292 13.3268C10.5877 13.5525 10.5389 13.8184 10.5548 14.0579C10.5729 14.3294 10.677 14.6016 10.9796 14.7602M10.4401 12.3763C11.0053 12.3836 10.9205 12.8466 10.827 13.3571C10.7392 13.8368 10.6436 14.3584 11.0726 14.5831M10.9796 14.7602L11.0726 14.5831M10.9796 14.7602C10.9797 14.7602 10.9798 14.7603 10.9798 14.7603L11.0726 14.5831" stroke="#ADE8FF" stroke-opacity="0.8" stroke-width="0.4"/>
<path d="M18.0864 12.1933C18.0864 11.9965 17.9317 11.8419 17.7349 11.8419C17.5382 11.8419 17.3835 11.9965 17.3835 12.1933C17.3835 12.3901 17.5382 12.5447 17.7349 12.5447C17.9317 12.5306 18.0864 12.376 18.0864 12.1933Z" fill="#1E8EC0"/>
<path d="M13.3057 6.92176C13.3057 6.76714 13.1792 6.64063 13.0245 6.64063C12.8699 6.64063 12.7434 6.76714 12.7434 6.92176C12.7434 7.07638 12.8699 7.20288 13.0245 7.20288C13.1792 7.20288 13.3057 7.07638 13.3057 6.92176Z" fill="#1E8EC0"/>
<path d="M9.78065 10.6611C9.78065 10.6611 8.76861 10.5908 8.79672 11.139C8.82483 11.5748 9.71037 11.139 9.85093 10.9282C10.0056 10.6892 9.78065 10.6611 9.78065 10.6611Z" fill="#1E8EC0"/>
<path d="M21.8136 14.6668C21.8136 14.1889 21.4201 13.7954 20.9422 13.7954C20.4643 13.7954 20.0707 14.1889 20.0707 14.6668C20.0707 15.1448 20.4643 15.5383 20.9422 15.5383C21.4341 15.5243 21.8136 15.1448 21.8136 14.6668Z" fill="#26A2CF"/>
<path d="M21.3493 14.9065C21.3493 14.6816 21.1666 14.5129 20.9557 14.5129C20.7308 14.5129 20.5621 14.6956 20.5621 14.9065C20.5621 15.1314 20.7449 15.3 20.9557 15.3C21.1666 15.3 21.3493 15.1173 21.3493 14.9065Z" fill="#4FE3FF"/>
<path d="M7.2946 15.5233C7.2946 15.0454 6.90103 14.6518 6.42312 14.6518C5.94521 14.6518 5.55164 15.0454 5.55164 15.5233C5.55164 16.0012 5.94521 16.3948 6.42312 16.3948C6.91509 16.3948 7.2946 16.0153 7.2946 15.5233Z" fill="#26A2CF"/>
<path d="M6.83024 15.7771C6.83024 15.5522 6.64751 15.3835 6.43666 15.3835C6.21177 15.3835 6.04309 15.5662 6.04309 15.7771C6.04309 16.002 6.22582 16.1707 6.43666 16.1707C6.64751 16.1707 6.83024 15.9879 6.83024 15.7771Z" fill="#4FE3FF"/>
<path d="M8.1668 5.93906C8.1668 5.46115 7.77322 5.06758 7.29531 5.06758C6.8174 5.06758 6.42383 5.46115 6.42383 5.93906C6.42383 6.41697 6.8174 6.81055 7.29531 6.81055C7.77322 6.81055 8.1668 6.41697 8.1668 5.93906Z" fill="#26A2CF"/>
<path d="M7.68949 6.17869C7.68949 5.95379 7.50676 5.78512 7.29592 5.78512C7.07102 5.78512 6.90234 5.96785 6.90234 6.17869C6.90234 6.40359 7.08507 6.57227 7.29592 6.57227C7.52082 6.57227 7.68949 6.40359 7.68949 6.17869Z" fill="#4FE3FF"/>
<path d="M12.2256 19.1929C12.2256 19.1929 11.3823 20.458 11.7477 21.5684C12.1272 22.6789 13.069 22.9038 13.4766 22.5664C14.1794 22.0042 13.6734 21.5122 12.9706 20.7953C12.1553 19.9379 13.0549 18.1106 12.2256 19.1929Z" fill="#26A2CF"/>
<path d="M12.9558 22.3141C13.0964 22.2016 13.1104 22.0048 12.998 21.8643C12.8855 21.7237 12.6887 21.7097 12.5482 21.8221C12.4076 21.9346 12.3935 22.1313 12.506 22.2719C12.6184 22.3984 12.8152 22.4265 12.9558 22.3141Z" fill="#4FE3FF"/>
<path d="M19.4385 6.06403C19.4385 6.06403 20.8301 5.45961 21.1253 4.32106C21.4204 3.18251 20.7457 2.49376 20.2257 2.54998C19.3401 2.64838 19.4947 3.32307 19.6775 4.32106C19.9024 5.48773 18.1594 6.52789 19.4385 6.06403Z" fill="#26A2CF"/>
<path d="M20.5206 3.05635C20.3519 3.0704 20.2254 3.22502 20.2395 3.40775C20.2535 3.57643 20.4081 3.70293 20.5909 3.68887C20.7595 3.67482 20.8861 3.5202 20.872 3.33747C20.8579 3.15474 20.6893 3.02823 20.5206 3.05635Z" fill="#4FE3FF"/>
</svg>
