<svg width="30" height="23" viewBox="0 0 30 23" fill="none" xmlns="http://www.w3.org/2000/svg">
<path fill-rule="evenodd" clip-rule="evenodd" d="M8.15765 17.6812L7.96282 17.5918C7.76799 17.5025 7.43754 17.1946 6.83589 16.4498C6.71744 16.7079 6.20933 16.7873 5.81967 16.6085C5.81967 16.6085 5.62484 16.5191 5.68406 16.39C5.68406 16.39 5.74329 16.2609 5.54846 16.1715C5.09957 16.1218 4.90474 16.0324 4.70991 15.943C4.51508 15.8536 4.32025 15.7642 4.18464 15.5458C4.10825 15.1982 3.83703 14.7613 3.56582 14.3244L3.37098 14.235C3.11693 14.2746 2.80365 14.4434 2.49038 14.6121C2.43115 14.7412 2.1771 14.7809 1.98227 14.6915C1.39778 14.4233 1.32139 14.0757 1.81233 13.5198C2.30328 12.9638 3.00622 12.9739 3.59071 13.2421C4.37004 13.5997 4.77686 14.2551 5.00602 15.2977C5.20085 15.3871 5.45491 15.3474 5.64974 15.4368C4.85325 14.6026 4.44642 13.9472 4.0396 13.2918C4.09882 13.1627 4.35287 13.1231 4.54771 13.2125L5.75102 14.7021C6.25913 14.6227 6.76723 14.5434 6.76723 14.5434C6.96206 14.6328 7.23328 15.0697 7.64011 15.7251L7.77572 15.9436C7.97055 16.033 8.16538 16.1224 8.36021 16.2118C8.94471 16.48 9.08031 16.6984 9.09748 17.175C9.8768 17.5326 10.3429 18.059 10.4192 18.4065C10.1652 18.4462 9.7163 18.3964 9.32664 18.2176C9.46224 18.4361 9.40302 18.5652 9.47941 18.9127C9.22535 18.9524 8.9713 18.992 8.9713 18.992" fill="#8784B1"/>
<path d="M4.55808 4.31649L4.55809 4.31648C4.72594 4.12169 5.1386 4.00548 5.55126 3.88928L5.55129 3.88927C6.24728 3.98835 6.69845 4.00883 6.90479 3.95072C7.11113 3.89262 7.44682 3.50304 7.49919 2.89817L8.32454 2.66576C9.14989 2.43334 9.52407 2.18044 9.4086 1.77037L9.08679 1.4184L7.22975 1.94133C7.1004 2.27282 7.13889 2.4095 7.17738 2.54619C5.86237 2.62143 5.20487 2.65905 4.99853 2.71716C4.79219 2.77526 4.62435 2.97006 4.62435 2.97006C4.32715 3.49633 4.1593 3.69113 3.99146 3.88592L3.99145 3.88592C3.74663 3.80734 3.54029 3.86544 3.33395 3.92354L2.71494 4.09785C2.8689 4.64461 3.35856 4.80179 4.18391 4.56938C4.39024 4.51128 4.39025 4.51127 4.55808 4.31649Z" fill="#8784B1"/>
<path fill-rule="evenodd" clip-rule="evenodd" d="M14.7198 16.8546C14.6154 16.8546 14.5109 16.8546 14.5109 16.9238C14.5109 16.9238 14.6154 16.9238 14.7198 16.9238C14.8243 16.9238 14.9288 16.9238 15.0332 16.9238C15.0332 16.9238 15.0332 16.9238 15.1377 16.9238C14.9288 16.9238 14.8243 16.8546 14.7198 16.8546ZM15.5556 16.5777C15.6601 16.647 15.869 16.647 15.9735 16.647C16.2869 16.5777 16.6003 16.5085 16.9138 16.4393C17.1227 16.4393 17.3317 16.4393 17.3317 16.4393H17.4361L17.6451 16.5777C17.7496 16.647 19.2115 16.7852 17.6451 16.8546C17.4361 16.9238 18.9658 17.2006 18.13 17.5467C17.2942 17.8235 16.4952 18.031 16.3907 18.031C16.3907 18.031 16.0773 18.031 15.5549 17.9618C14.7191 17.9618 13.0483 17.7543 13.5706 17.5467C13.5706 17.4775 13.5706 17.3391 13.6751 17.1314C13.9885 16.647 14.4064 16.4393 14.7198 16.4393C14.8243 16.4393 15.1377 16.5085 15.5556 16.5777ZM18.5853 17.1314C18.6898 16.993 18.2719 16.647 18.5853 16.5085C18.7943 16.3701 19.0032 16.3009 19.2122 16.3009C20.9504 15.6782 23.0173 15.7472 21.4509 15.8166C21.4509 15.955 22.0989 16.3009 21.1587 16.4393C21.0542 16.4393 18.8787 17.3391 18.5853 17.1314Z" fill="#8784B1"/>
<path d="M17.4904 3.63442L17.4904 3.63441C17.6353 3.53841 17.9251 3.53841 18.215 3.53841H18.215C18.6497 3.73041 18.9396 3.82642 19.0845 3.82642C19.2294 3.82642 19.5193 3.63441 19.6642 3.2504H20.2439C20.8235 3.2504 21.1134 3.15439 21.1134 2.86639L20.9684 2.57838L19.6642 2.57838C19.5193 2.77038 19.5193 2.86638 19.5193 2.96239V2.96239C18.6497 2.77038 18.215 2.67438 18.0701 2.67438C17.9252 2.67438 17.7802 2.77039 17.7802 2.77039C17.4904 3.05839 17.3455 3.1544 17.2006 3.2504L17.2006 3.2504C17.0556 3.1544 16.9107 3.15439 16.7658 3.15439H16.3311C16.3311 3.53841 16.6209 3.73041 17.2006 3.73041C17.3455 3.73041 17.3455 3.73041 17.4904 3.63442Z" fill="#8784B1"/>
<path d="M17.3544 19.3244C17.197 19.3244 17.197 19.2201 17.0395 19.1158C17.0395 19.0115 16.8821 18.9073 16.7247 19.1158C16.4099 19.1158 16.2524 19.3244 16.2524 19.7415C16.2524 19.9501 16.4099 20.0544 16.4099 20.1587L16.2524 20.8887C17.5118 21.4101 18.1415 21.6187 18.2989 21.6187C18.6138 21.6187 18.9286 21.6187 19.086 21.5144C19.5583 21.6187 19.8731 21.723 20.188 21.723C20.3454 21.723 20.5028 21.6187 20.6602 21.5144C20.8176 21.5144 20.9751 21.4101 21.1325 21.4101C21.2899 21.8272 21.4473 22.0358 21.6048 22.1401C21.6048 22.2444 21.9196 22.2444 22.077 22.2444C22.077 22.2444 22.3919 22.1401 22.5493 21.9315C22.3919 21.8272 22.3919 21.723 22.3919 21.6187C22.5493 21.723 22.7067 21.723 22.8641 21.8272V21.723C23.0215 21.2015 22.8641 20.7844 22.3919 20.6801C22.3919 20.5758 21.9196 20.5758 21.4473 20.5758C21.4473 20.5758 21.2899 20.6801 20.9751 20.6801H20.6602V20.4715V20.4715C20.6602 20.3672 20.6602 20.263 20.5028 20.1587C20.3454 20.0544 20.188 20.0544 20.0305 20.0544H19.4009C19.4009 19.7415 19.5583 19.533 19.5583 19.4287C19.5583 19.1158 19.4009 19.0115 18.9286 19.0115C18.1415 19.2201 17.5118 19.3244 17.3544 19.3244Z" fill="#8784B1"/>
<path d="M6.94688 7.87757C7.87288 6.4642 10.2975 6.02963 11.3941 5.98901L20.228 6.5373L19.7406 9.4006L20.228 11.1673L22.7258 13.6042L21.6901 15.5536C20.6748 15.5333 18.3029 14.7738 16.6946 14.5789C14.475 14.3098 12.5314 14.1321 11.3941 13.6042C9.52587 12.2842 6.02088 9.29094 6.94688 7.87757Z" fill="#724416"/>
<path d="M15.417 14.4578H16.6963L18.0366 14.7624H19.3159L20.4734 14.4578L21.5091 15.4934L20.1079 15.798L17.3055 15.4934L14.8078 14.7624L12.0798 13.9849L13.0698 13.3757L13.2983 13.7869L14.229 14.1227V13.3757L14.8078 13.7869L15.417 14.4578Z" fill="#6C310A"/>
<path d="M7.00808 8.60903C7.00194 8.5831 6.99833 8.55652 6.99715 8.52936L6.79492 7.05533C7.11982 6.85237 8.42408 6.1339 9.25264 5.50015C10.0812 4.8664 17.974 5.57285 21.6901 5.83691C22.279 6.10097 21.06 6.62889 20.0757 6.62889C18.309 6.62889 13.5171 5.98917 10.7147 6.29377C8.94394 6.48625 6.96332 7.7483 6.99715 8.52936L7.00808 8.60903Z" fill="#6C310A"/>
<path d="M4.22095 8.71542L4.67786 8.14429L7.25177 8.79157L6.73394 9.67493L4.22095 8.71542Z" fill="#96572E"/>
<path d="M14.39 17.4178C10.841 15.8175 9.10135 13.6007 8.22656 12.4468L19.5883 16.6199L18.309 16.4066L17.121 16.6199L16.8469 16.8636C16.6641 16.8737 15.9635 16.8879 15.8417 16.8636C15.313 16.7578 14.8815 17.6394 14.39 17.4178Z" fill="#96572E"/>
<path d="M9.87138 13.9697C8.28743 12.995 6.62225 10.8628 5.85059 9.58343L6.21611 9.15698L7.03855 9.58343L8.74434 11.5634C9.78 12.1827 11.8757 13.4824 11.9732 13.7261C12.0706 13.9697 14.5725 14.843 15.8112 15.2491L22.6343 15.7365H22.2384L20.9895 16.102L19.9538 16.6198H18.6745L18.3089 16.3761L18.0043 16.6198H17.0601L16.8164 16.8635C15.3543 16.0106 14.3592 15.7771 13.1611 15.5537C12.4511 15.4213 11.2667 14.8284 9.87138 13.9697Z" fill="#96572E"/>
<path d="M5.86304 9.61394V8.7915L7.13001 9.09611C9.68869 12.264 13.0954 14.0453 14.2397 14.4267C16.6156 15.2187 19.9844 15.4624 22.6163 15.4624V15.7974H22.068L20.8982 16.102C20.1874 16.1833 17.7487 16.0167 14.2397 15.1882C10.7306 14.3597 7.83282 11.3299 6.71593 9.82716L5.86304 9.61394Z" fill="#AA6622"/>
<path d="M11.7904 5.44079C9.32098 5.49567 7.38381 6.65921 6.85583 7.32935L5.48511 7.14681V6.47656H6.67307C7.59907 5.5993 9.70897 4.97293 11.3335 4.76983C12.9581 4.56672 23.2741 5.86724 23.2741 5.86724V6.47656C20.3295 6.13134 13.9836 5.39206 11.7904 5.44079Z" fill="#AA6622"/>
<path fill-rule="evenodd" clip-rule="evenodd" d="M17.9112 8.19826L17.9112 13.011L11.4648 11.951L11.4648 8.62714L17.9112 8.19826Z" fill="#95591E"/>
<path d="M4.68565 8.13653L4.41912 7.05518L3.99268 7.45116L4.22875 8.70005L4.68565 8.13653Z" fill="#96572E"/>
<path d="M4.69328 8.15176L4.38867 7.05518L6.82552 7.54254L7.25196 8.85235L4.69328 8.15176Z" fill="#AA6622"/>
<path d="M12.1448 9.91999L14.0391 10.1194L3.21995 2.07352C3.06664 1.95951 2.85518 1.96541 2.70846 2.08779C2.50468 2.25777 2.51156 2.57301 2.72257 2.73394L12.1448 9.91999Z" fill="#B06B22"/>
<path d="M18.3395 20.6102L17.9131 20.001L21.4465 17.3813C21.6496 17.5641 22.0435 18.0027 21.9948 18.2952C21.9461 18.5876 19.5376 19.9603 18.3395 20.6102Z" fill="#AA6622"/>
<path d="M17.6117 6.59331C17.7043 6.48404 17.7974 6.37842 17.8872 6.28858C17.9769 6.19891 18.2391 5.9998 18.3605 6.0365L19.0911 6.25737C19.1554 6.27681 19.2253 6.26245 19.2748 6.21696C19.5663 5.94868 20.0261 5.43559 20.0261 5.06073C20.0261 4.69409 20.5287 4.65599 20.8625 4.68929C20.9387 4.69689 21.012 4.72023 21.0818 4.75164L21.4439 4.91453C21.6314 4.9989 21.8524 4.93535 21.9665 4.76427C21.9929 4.7246 22.0259 4.68971 22.0641 4.6611L22.3801 4.4241C22.6387 4.23017 22.5871 3.82694 22.2918 3.69565C22.2605 3.68172 22.2308 3.66331 22.2044 3.64134C22.0854 3.54205 22.0407 3.37924 22.0923 3.2331L22.2117 2.89502C22.2332 2.83395 22.261 2.77539 22.2972 2.72169C22.4591 2.48147 22.7894 2.05429 23.1551 1.77298C23.5249 1.48848 23.9225 2.01293 24.1241 2.40018C24.166 2.48077 24.2267 2.55066 24.3046 2.59739C24.6005 2.77495 24.9771 2.56172 24.9771 2.21658V1.5354C24.9771 1.17899 25.2543 1.21853 25.9277 0.980886C26.329 0.839228 26.6967 1.06993 26.929 1.30597C27.0647 1.44385 27.1159 1.63829 27.1159 1.83176V2.5256C27.1159 3.0204 27.8541 3.01289 28.3194 2.84449C28.3661 2.82757 28.4139 2.81357 28.4626 2.80314C28.8554 2.71897 29.3185 3.20821 29.5661 3.55052C29.6245 3.63126 29.6656 3.72289 29.6857 3.82048C29.7412 4.08864 29.782 4.4943 29.6508 4.70433C29.5322 4.8941 29.3027 4.85897 29.1283 4.785C29.0239 4.74073 28.9404 4.65903 28.8884 4.55825C28.8155 4.41677 28.7398 4.21037 28.7398 3.99138C28.7398 3.92013 28.7171 3.86356 28.6794 3.81898C28.4273 3.52134 28.0098 3.92952 27.9252 4.31025C27.9138 4.36159 27.8987 4.41212 27.8753 4.45922C27.758 4.69552 27.4874 5.06073 27.1159 5.06073C26.601 5.06073 27.2347 4.3874 27.1159 4.3874C26.9971 4.3874 26.6802 3.95171 26.4822 3.67445C26.4032 3.56388 26.2947 3.54058 26.191 3.55648C26.0092 3.58433 25.9277 3.78199 25.9277 3.96585C25.9277 4.21846 25.7678 4.44292 25.5398 4.55175C25.2851 4.67336 24.9708 4.84784 24.6998 5.06073C24.4848 5.22968 24.5651 5.46129 24.7575 5.6852C25.0171 5.98713 24.9589 6.50119 24.6998 6.80348C24.4622 7.08074 24.4622 7.358 25.2543 7.358C26.0465 7.358 25.7692 8.15015 25.7296 8.46702C25.69 8.78388 24.8978 8.46702 24.1849 8.46702C23.9358 8.46702 23.7028 8.32597 23.5051 8.13629C23.3418 7.97965 22.9571 8.08847 22.9571 8.31474C22.9571 8.40568 22.8989 8.48642 22.8126 8.51517L22.1618 8.73211C21.9102 8.81598 21.6355 8.79646 21.3983 8.67786L21.044 8.50068C21.0007 8.47905 20.9509 8.47461 20.9044 8.48826L19.9809 8.75988C19.9226 8.77705 19.935 8.8631 19.9958 8.8631C20.0145 8.8631 20.0319 8.87305 20.0413 8.88924L20.4444 9.58017C20.5336 9.7331 20.5806 9.90698 20.5806 10.084V10.7183C20.5806 10.8492 20.6326 10.9747 20.7251 11.0673C20.8753 11.2175 21.1048 11.2547 21.2948 11.1597L21.3234 11.1454C21.5747 11.0198 21.8805 11.1088 22.025 11.3498L22.2095 11.6572C22.2325 11.6956 22.2584 11.7323 22.2867 11.767L22.7807 12.3707C22.8751 12.4861 23.0486 12.4948 23.154 12.3893C23.2602 12.2831 23.4352 12.2928 23.5291 12.4101L23.9869 12.9823L24.4998 13.6663C24.6296 13.8394 24.6936 14.0509 24.7245 14.2651C24.7768 14.6283 24.9225 15.0419 25.2543 15.0419C25.8088 15.0419 25.2543 15.6757 25.2543 16.0718C25.2543 16.2965 24.8294 16.2689 24.4316 16.1867C24.1459 16.1277 23.8445 16.1607 23.5972 16.3153L23.5627 16.3368C23.4258 16.4224 23.2675 16.4678 23.106 16.4678H22.6543C22.4278 16.4678 22.2441 16.2842 22.2441 16.0576C22.2441 15.8424 22.4117 15.6665 22.6212 15.6171C22.9727 15.5344 23.3531 15.3602 23.3531 15.0419C23.3531 14.4874 22.4025 13.9329 22.2441 13.3784C22.1174 12.9348 20.4485 12.4014 19.63 12.1902C18.917 11.9261 17.4911 11.303 17.4911 10.9227V8.6589C17.4911 8.53299 17.4583 8.40952 17.3958 8.30021C17.1397 7.85198 17.278 6.98721 17.6117 6.59331Z" fill="#8784B1"/>
<path d="M22.4231 9.38537C22.3744 9.53158 21.7936 9.91335 21.5093 10.086L21.7225 10.4211L22.0576 10.9693L22.7277 11.5786L23.5197 12.3096L24.2507 13.0711L25.2255 14.0763L26.0174 13.4062L25.4387 12.7361L24.7076 11.9136L23.8243 10.9693C23.3775 10.3804 22.4718 9.23916 22.4231 9.38537Z" fill="#AA6622"/>
<path d="M23.4282 10.0252L21.9966 7.92338L22.8799 7.16187L25.5909 10.9694L24.9817 11.67L24.5553 11.4568L23.4282 10.0252Z" fill="#AA6622"/>
<path d="M22.7583 6.4916L23.3371 5.39502L24.0681 5.85193L25.0124 6.4916L26.0785 7.10081L27.0837 7.83186L26.5963 8.6543L25.9262 8.41061L24.7687 7.67956L24.0681 7.10081L22.7583 6.4916Z" fill="#AA6622"/>
<path d="M23.8294 1.46222C23.743 1.70402 22.7606 3.76576 22.7606 3.76576C22.7158 3.87075 22.655 4.00438 22.5878 4.16347C22.559 4.2271 22.5334 4.29073 22.5014 4.36073C22.3766 4.63754 22.2326 4.9748 22.0694 5.3566C22.031 5.44569 21.9926 5.53795 21.951 5.6334C21.4038 6.89653 20.811 7.64869 20.0718 9.35408C19.9854 9.55134 19.9022 9.74861 19.8158 9.94587C19.787 10.0127 19.7582 10.0827 19.7294 10.1495C19.5022 10.6713 19.275 11.1899 19.0542 11.6958C18.987 11.8453 18.923 11.9949 18.859 12.1412C18.731 12.4276 18.6094 12.7108 18.4878 12.9812C18.0942 12.9048 17.6814 12.7967 17.2686 12.6535C16.9934 12.558 16.7182 12.4435 16.4558 12.3067C16.9774 11.3426 17.5566 10.2863 18.1326 9.23317C19.851 6.09603 21.4326 3.91529 21.695 3.43804C21.7174 3.3935 21.7302 3.37123 21.7302 3.37123C21.7686 3.31077 21.8102 3.2535 21.8518 3.19942C22.1398 2.71898 22.687 1.68175 22.8214 1.49403C22.9942 1.25541 22.975 1.41767 22.959 1.5163C22.943 1.61812 23.3174 1.34131 23.3398 1.29359C23.343 1.28722 23.3462 1.28404 23.3462 1.28722C23.3462 1.30313 23.3238 1.38267 23.3238 1.38267C23.3238 1.38267 23.4006 1.38586 23.4806 1.36677C23.4966 1.36358 23.5094 1.3604 23.5254 1.35404C23.551 1.34768 23.5766 1.33813 23.5958 1.3254C23.7014 1.25859 23.7174 1.27131 23.7046 1.34131C23.6982 1.42085 23.919 1.22041 23.8294 1.46222Z" fill="#B06B22"/>
<path opacity="0.2" d="M23.8289 1.46269C23.7425 1.7045 22.7601 3.76623 22.7601 3.76623C22.7153 3.87122 22.6545 4.00485 22.5873 4.16394C22.5585 4.22757 22.5329 4.29121 22.5009 4.3612C22.3761 4.63801 22.2321 4.97527 22.0689 5.35707C22.0305 5.44616 21.9921 5.53843 21.9505 5.63388C21.4033 6.89701 20.6801 8.57375 19.9409 10.2791C19.8545 10.4764 19.7713 10.6737 19.6849 10.8709C19.6561 10.9377 19.6273 11.0077 19.5985 11.0746C19.3713 11.5964 19.414 11.1382 19.1932 11.6441C19.126 11.7937 19.062 11.9432 18.998 12.0896C18.8732 12.3759 18.7484 12.6591 18.63 12.9327C18.614 12.9645 18.6012 12.9963 18.5852 13.0282C18.6012 12.9963 18.6108 12.9645 18.6268 12.9327C18.2332 12.8563 17.8204 12.7482 17.4076 12.605C17.3116 12.43 17.27 12.2995 17.2828 12.2773C17.3596 12.1564 18.9361 10.0469 19.6145 8.92692C20.2929 7.80697 20.9681 5.96477 21.6913 4.79073C22.3025 3.80759 22.8849 2.80854 23.4833 1.3736L23.4865 1.37042C23.5025 1.36724 23.5121 1.36406 23.5281 1.36087C23.5537 1.35451 23.5793 1.34497 23.5985 1.33224C23.7041 1.26542 23.7201 1.27815 23.7073 1.34815C23.6977 1.42133 23.9185 1.22088 23.8289 1.46269Z" fill="#7A614F"/>
<path d="M27.1909 2.4299H17.6582C17.559 2.4299 17.4822 2.35036 17.4822 2.2549V2.12446C17.4822 2.02582 17.5622 1.94946 17.6582 1.94946H27.1909C27.2901 1.94946 27.3669 2.02901 27.3669 2.12446V2.2549C27.3669 2.35036 27.2869 2.4299 27.1909 2.4299Z" fill="#B06B22"/>
<path opacity="0.4" d="M22.9493 3.36768C22.5365 3.40586 22.1141 3.43131 21.7013 3.43131C21.6981 3.43449 21.6981 3.43767 21.6949 3.44085C21.455 3.87675 19.9926 6.52709 18.4246 9.38742C18.7254 9.76286 19.2534 10.3292 19.7366 10.7492C19.8038 10.5933 19.871 10.4374 19.9382 10.2815C20.6774 8.57609 21.4006 6.89935 21.9477 5.63622C21.9893 5.54077 22.0277 5.4485 22.0661 5.35941C22.2325 4.98079 22.3765 4.64353 22.4981 4.36354C22.5269 4.29355 22.5525 4.22673 22.5845 4.16628C22.6517 4.01038 22.7125 3.87675 22.7573 3.76857C22.7605 3.76539 22.8373 3.60312 22.9493 3.36768Z" fill="#693210"/>
<path d="M17.8983 1.94604C15.0983 3.11372 16.7815 6.17769 17.0151 7.269C17.2487 8.36032 17.3703 9.02211 17.6551 8.80258C17.9399 8.57986 17.8375 7.87671 18.3655 8.56077C18.8935 9.24483 20.3943 10.7848 20.7399 10.5398C21.0855 10.2948 21.3287 9.32755 21.8343 9.99253C22.3399 10.6575 22.4231 10.9598 23.0727 11.4243C23.7223 11.8888 24.1863 12.0256 24.2183 11.6629C24.2503 11.3034 24.1703 11.2207 24.5735 11.5229C24.9799 11.8252 25.7703 11.5643 25.8727 11.3002C25.9751 11.0361 27.4535 12.4997 27.5367 12.4838C27.6167 12.4679 27.5367 11.3129 27.5367 11.0648C27.5367 10.8166 27.5175 11.0043 27.7191 11.0329C27.9207 11.0584 28.1255 10.6766 28.0839 10.1516C28.0423 9.62663 27.8407 9.09529 27.8599 8.25214C27.8791 7.409 28.1639 6.03769 27.8599 4.74911C27.5559 3.45735 27.3735 2.12422 27.3735 2.12422C27.3735 2.12422 26.9927 2.13058 26.0999 2.19103C25.2039 2.25149 22.4519 2.93555 20.4423 2.59511C18.4327 2.25467 17.8983 1.94604 17.8983 1.94604Z" fill="#D2E4E8"/>
<path d="M25.0343 2.69112C22.8647 3.25428 23.1495 3.90016 21.4439 3.477C19.7416 3.05383 18.18 2.52886 19.78 3.83971C21.3831 5.15056 22.5607 4.64468 22.8647 6.19734C23.1655 7.75 23.3575 8.11271 24.3271 8.69814C25.2967 9.28357 25.3607 9.85309 26.0903 10.534C26.8167 11.218 26.9191 11.2021 26.9191 10.534C26.9191 9.86582 27.1207 10.1681 27.3639 10.1872C27.6071 10.2063 27.4439 9.66219 27.2231 8.43406C27.0023 7.20593 26.9799 7.05321 27.1207 6.07007C27.2615 5.08693 27.4855 3.69653 27.2423 3.05065C26.9991 2.40477 27.1399 1.92115 26.5927 2.32523C26.0487 2.73248 25.0343 2.69112 25.0343 2.69112Z" fill="#E2EFF1"/>
</svg>
