<svg width="154" height="274" viewBox="0 0 154 274" fill="none" xmlns="http://www.w3.org/2000/svg">
<line x1="0.818237" y1="1.04526" x2="151.992" y2="1.04526" stroke="#97C0FF" stroke-width="1.2"/>
<line x1="0.818237" y1="31.0453" x2="151.992" y2="31.0453" stroke="#97C0FF" stroke-width="1.2"/>
<line x1="0.818237" y1="61.0453" x2="151.992" y2="61.0453" stroke="#97C0FF" stroke-width="1.2"/>
<line x1="0.818237" y1="91.0453" x2="151.992" y2="91.0453" stroke="#97C0FF" stroke-width="1.2"/>
<line x1="0.818237" y1="121.045" x2="151.992" y2="121.045" stroke="#97C0FF" stroke-width="1.2"/>
<line x1="0.818237" y1="152.045" x2="151.992" y2="152.045" stroke="#97C0FF" stroke-width="1.2"/>
<line x1="0.818237" y1="273.045" x2="151.992" y2="273.045" stroke="#97C0FF" stroke-width="1.2"/>
<line x1="0.818237" y1="182.045" x2="151.992" y2="182.045" stroke="#97C0FF" stroke-width="1.2"/>
<line x1="0.818237" y1="212.045" x2="151.992" y2="212.045" stroke="#97C0FF" stroke-width="1.2"/>
<line x1="0.818237" y1="242.045" x2="151.992" y2="242.045" stroke="#97C0FF" stroke-width="1.2"/>
<line x1="152.418" y1="0.481201" x2="152.418" y2="273.481" stroke="#97C0FF" stroke-width="1.2"/>
<line x1="122.983" y1="1.64526" x2="122.983" y2="273.481" stroke="#97C0FF" stroke-width="1.2"/>
<line x1="93.5462" y1="1.64526" x2="93.5462" y2="273.481" stroke="#97C0FF" stroke-width="1.2"/>
<line x1="64.1096" y1="1.64526" x2="64.1096" y2="273.481" stroke="#97C0FF" stroke-width="1.2"/>
<line x1="34.6741" y1="1.64526" x2="34.6741" y2="273.481" stroke="#97C0FF" stroke-width="1.2"/>
<line x1="1.41824" y1="1.64526" x2="1.41824" y2="273.645" stroke="#97C0FF" stroke-width="1.2"/>
</svg>
