<svg width="38" height="35" viewBox="0 0 38 35" fill="none" xmlns="http://www.w3.org/2000/svg">
<path d="M35.8027 18.1583C35.0059 18.0082 34.0596 17.8081 33.2379 17.8581C32.964 17.8831 32.6901 17.9582 32.4909 18.1332C31.9929 17.1078 30.8474 16.5576 29.6771 16.6326C29.8265 16.6827 29.9759 16.7077 30.1253 16.7827C31.3455 17.0078 32.2917 18.0082 32.3166 19.5338C32.3415 20.6843 31.5198 21.5096 30.6482 21.9848C30.1253 22.2599 29.6273 22.385 29.1293 22.3599C28.7309 22.3599 28.3325 22.3099 27.959 22.2349C28.5815 22.6601 29.3036 22.7351 30.0008 22.56C29.3534 23.2853 29.9261 24.5108 30.2498 25.4862C29.9759 25.111 29.6273 24.7359 29.204 24.8109C28.9799 24.8609 28.8554 25.111 28.8305 25.3361C28.7807 26.1364 29.0048 26.8868 29.2787 27.612C29.1044 27.2369 28.9052 26.8617 28.6811 26.4866C28.4819 26.1615 27.5107 24.4358 26.9629 24.8359C26.8384 24.936 26.8633 25.1861 26.8633 25.3111C26.8633 25.5362 26.938 25.7863 27.0376 25.9614C26.8882 25.6613 26.7139 25.3862 26.5147 25.1361C26.4151 25.011 26.0665 24.6609 25.8673 24.7109C26.0665 23.9856 26.0665 23.2103 25.8922 22.41C25.8673 22.635 25.8175 22.8601 25.7926 23.0852C25.7926 24.5858 25.1452 25.9614 23.8254 26.6116C23.676 26.6867 23.5017 26.7367 23.3274 26.7617C23.1282 26.8117 22.929 26.8367 22.7298 26.8367C21.7836 26.8617 21.0365 26.3115 20.414 25.6112C20.7626 26.1365 21.1859 26.6116 21.7587 26.9118C21.5595 27.3119 21.6591 27.8872 21.8085 28.4124C21.6342 28.1623 21.4349 27.9622 21.1361 27.9372C20.7128 27.8872 20.5385 28.4624 20.4887 28.7875C20.3144 29.6879 20.4389 30.7133 20.4638 31.6136C20.4887 32.514 20.6381 33.3894 20.7626 34.2647C20.4638 33.0142 20.1899 31.7887 19.7417 30.5882C19.6172 30.2381 18.8453 28.3874 18.3971 29.5378C18.2975 29.8129 18.2228 30.038 18.1729 30.3381C18.148 30.5132 18.1231 30.6883 18.0982 30.8633C18.0733 30.9384 18.0235 31.7137 18.0484 31.0384C18.0982 30.113 18.1231 29.1877 17.9488 28.2623C17.899 28.0372 17.7247 27.1619 17.3761 27.1369C17.3512 27.1369 17.3263 27.1369 17.3014 27.1369C17.5753 26.6617 17.7745 26.1364 17.899 25.5862C17.8243 25.7113 17.7247 25.8363 17.65 25.9614C17.3512 26.8117 16.8781 27.512 16.0813 27.9622C15.2845 28.4374 14.3133 28.3874 13.4916 28.0372C11.7485 27.2869 10.9019 24.7109 11.5991 22.8852C11.624 22.8351 11.5493 22.8351 11.5493 22.8601C10.8521 24.1106 10.9268 25.5862 11.4995 26.7617C11.375 26.9618 11.3252 27.1869 11.2754 27.437C11.2256 27.1619 11.1011 26.9118 10.8521 26.7367C10.3541 26.4116 9.60708 27.0368 9.25847 27.3119C7.96363 28.2623 6.8929 29.5878 5.89686 30.9134C6.66879 29.7129 7.59012 28.5874 8.28734 27.3119C8.68575 26.6116 9.05926 25.6613 7.96363 25.8613C7.66482 25.9114 7.39091 26.0864 7.117 26.2365C6.9178 26.3365 6.71859 26.4616 6.51938 26.5866C6.74349 26.4616 6.9427 26.3115 7.16681 26.1865C7.88893 25.7363 8.58615 25.2611 9.20867 24.6609C9.48258 24.3857 10.1549 23.7855 10.1051 23.2853C10.1051 23.2603 10.1051 23.2103 10.0802 23.1853C10.5782 23.1102 11.0762 22.8351 11.4746 22.46C11.375 22.51 11.3003 22.535 11.2007 22.56C10.8521 22.6851 10.3292 22.9602 9.93079 22.8852C9.20867 22.7601 8.68575 22.3349 8.36204 21.7847C7.93873 21.2345 7.68972 20.5092 7.59012 19.8089C7.56522 19.6589 7.54032 19.4838 7.54032 19.3337C7.54032 19.3087 7.56522 19.3087 7.56522 19.2837C7.56522 19.1837 7.56522 19.0836 7.54032 18.9836C7.59012 17.2079 8.76045 15.6322 10.0553 14.6318C10.0802 14.6068 10.0802 14.5568 10.0304 14.5818C8.66085 15.5822 7.49051 16.9328 7.21661 18.6334C6.66879 18.4084 5.62296 18.8085 5.24944 18.9586C3.55619 19.6589 1.98744 20.5592 0.393793 21.4846C0.817106 21.1845 1.21552 20.8593 1.63883 20.5342C2.58506 19.8339 3.60599 19.2087 4.47752 18.3833C4.85103 18.0332 5.62296 17.408 5.54825 16.7827C5.47355 16.3325 4.32812 16.6577 3.7056 16.8327C3.8052 16.7577 3.8799 16.6827 3.9546 16.5826C3.97951 16.5576 4.02931 16.4326 3.9546 16.4076C3.40679 16.2325 2.83407 16.3075 2.26135 16.3825C1.61393 16.4576 0.94161 16.5576 0.294189 16.6326C2.33605 16.0824 4.40282 15.6823 6.44468 15.132C6.54429 15.107 6.64389 15.082 6.76839 15.032C6.8929 15.082 7.0423 15.132 7.16681 15.1571C6.9427 14.982 6.69369 14.8069 6.49448 14.5818C5.97157 14.1316 5.64786 13.5814 5.39885 12.7561C5.00044 11.4306 5.42375 10.1551 6.27038 9.15465C6.9676 8.32932 8.06323 8.05421 9.03436 8.17926C9.20867 8.20427 9.35807 8.25429 9.53238 8.32932C9.95569 8.42936 10.3541 8.62944 10.6778 8.90455C10.5533 8.7795 10.4039 8.65445 10.2545 8.5294C10.1051 8.05421 9.78139 7.62904 9.53238 7.22888C9.38297 7.00379 9.20867 6.75369 9.05926 6.5286C9.10907 6.57862 9.15887 6.65365 9.20867 6.70367C9.48258 7.00379 9.88099 7.37894 10.1798 6.92876C10.4288 6.55361 10.1051 5.70327 10.0055 5.32812C9.93079 5.05301 9.85609 4.75289 9.78139 4.47778C9.88099 4.72788 10.0304 4.97798 10.13 5.22808C10.2296 5.47818 10.379 5.97838 10.6529 6.15345C10.7276 6.60363 10.8272 7.05381 11.0015 7.47898C10.9268 7.05381 10.9019 6.60363 10.877 6.22848C10.8521 5.85333 10.8521 5.50319 10.9019 5.12804C10.8521 4.30271 11.3003 3.55241 11.624 2.82712C11.9976 2.00179 12.6699 1.65165 13.4169 1.35153C14.2386 1.0264 14.9358 0.826321 15.8074 1.15145C16.3801 1.35153 16.9279 1.75169 17.401 2.12684C17.8492 2.47698 18.2227 3.05221 18.4469 3.72748C18.4469 3.75249 18.4469 3.75249 18.4469 3.7775C18.4967 3.92756 18.5465 4.07762 18.5963 4.22768V4.20267C18.5963 4.25269 18.6212 4.30271 18.6212 4.35273C18.671 4.5278 18.7457 4.72788 18.7706 4.92796C18.7706 4.95297 18.7706 4.95297 18.7706 4.95297C18.7457 4.62784 18.6959 4.30271 18.5963 4.00259C18.6212 3.7775 18.6212 3.57742 18.671 3.37734C18.7208 2.97718 18.7955 2.57702 18.8204 2.17686C18.8702 2.62704 18.92 3.05221 19.0445 3.45237C19.1192 3.67746 19.3184 3.65245 19.4429 3.50239C19.6421 3.2773 19.7666 2.95217 19.916 2.67706C20.0405 2.45197 20.5385 1.32652 20.165 2.45197C20.0405 2.85213 19.7666 3.42736 19.916 3.85253C19.9409 3.92756 19.9907 3.95257 20.0405 3.95257C19.6421 4.5278 19.3184 5.15305 19.2188 5.7783C19.2935 5.62824 19.3433 5.47818 19.4429 5.32812C19.6421 4.80291 19.9658 4.30271 20.3393 3.85253C20.414 3.75249 20.5136 3.65245 20.5883 3.55241C20.6879 3.42736 20.8124 3.32732 20.9369 3.22728C21.41 2.7771 21.9579 2.42696 22.431 2.15185C23.7507 1.42656 25.2448 1.47658 26.6143 2.00179C27.959 2.50199 28.8056 3.57742 29.1044 5.07802C29.2538 5.87834 29.1293 6.62864 28.8803 7.32892C28.706 7.87914 28.457 8.40435 28.1582 8.87954C28.5815 8.37934 28.955 7.82912 29.1791 7.20387V7.22888C29.1791 7.25389 29.2289 7.25389 29.2538 7.25389C29.5277 7.15385 29.702 6.95377 29.8763 6.70367C30.3494 6.0284 30.8474 5.37814 31.3455 4.75289C31.9182 4.05261 32.5407 3.40235 33.1632 2.72708C32.964 3.00219 32.7648 3.2773 32.5656 3.55241C32.0427 4.22768 31.4949 4.87794 30.9969 5.57822C30.7976 5.87834 29.7518 7.35393 30.0755 7.72908C30.4739 8.17926 31.6692 7.22888 32.0178 6.97878C32.715 6.5286 32.1672 7.00379 31.9929 7.12884C31.6443 7.37894 31.2708 7.62904 30.9221 7.85413C30.5984 8.05421 30.1502 8.22928 29.951 8.62944C29.3036 8.7795 28.6811 9.07963 28.1084 9.47978C28.2827 9.37974 28.457 9.30472 28.6313 9.22968C28.8056 9.15465 28.9799 9.10464 29.1542 9.07963C30.0506 8.7545 31.0218 8.72948 31.9182 9.10464C33.0138 9.57983 33.711 10.7303 33.6114 12.0058C33.4869 13.6314 32.7897 14.8319 31.5696 15.6573C31.47 15.7573 31.3953 15.8323 31.3206 15.9324C31.9182 15.6573 32.466 15.2821 32.8893 14.7819C32.9142 14.8819 32.9889 14.982 33.1134 15.082C33.5118 15.4072 34.1094 15.4572 34.732 15.4072C34.3834 15.5072 34.0347 15.6823 33.7608 15.9074C32.6901 16.8327 35.5786 17.7081 35.977 17.8581C36.2758 17.9832 36.5995 18.1082 36.9232 18.2333C36.5995 18.3333 36.2011 18.2333 35.8027 18.1583Z" fill="#EED017"/>
<path opacity="0.4" d="M36.0532 18.0337C35.6548 17.8586 32.7912 17.0082 33.837 16.0829C34.1109 15.8328 34.4595 15.6827 34.8081 15.5827C34.1856 15.6327 33.588 15.5827 33.1896 15.2575C33.0651 15.1575 32.9904 15.0575 32.9655 14.9574C32.5422 15.4576 31.9944 15.8328 31.3967 16.1079C31.4714 16.0329 31.571 15.9328 31.6457 15.8328C32.8908 15.0074 33.5631 13.807 33.6876 12.1813C33.7125 11.9312 33.6876 11.7061 33.6627 11.481C33.5382 12.0563 33.1896 12.5565 32.7165 12.9316C31.4714 13.932 29.0063 14.2822 28.4335 12.2563C28.1347 11.1809 28.7074 10.1305 29.5292 9.55526C29.9525 9.25515 30.4256 9.10508 30.9236 9.05506C30.9734 9.05506 30.9983 9.03005 31.0481 9.03005C30.4505 8.95502 29.828 9.05506 29.2553 9.25514C29.081 9.30516 28.9067 9.35518 28.7323 9.4052C28.558 9.48023 28.3837 9.55526 28.2094 9.6553C28.7572 9.25514 29.4047 8.95502 30.0521 8.80496C30.2513 8.42981 30.6995 8.25474 31.0232 8.02965C31.3967 7.80456 31.7453 7.55446 32.094 7.30436C32.2683 7.17931 32.8161 6.70412 32.1189 7.1543C31.7453 7.37939 30.5501 8.35478 30.1766 7.9046C29.8529 7.52945 30.8987 6.05386 31.0979 5.75374C31.5959 5.05346 32.1438 4.4032 32.6667 3.72793C32.8659 3.45282 33.0651 3.17771 33.2643 2.9026C32.6667 3.57787 32.0193 4.22813 31.4465 4.92841C30.9236 5.55366 30.4505 6.20392 29.9774 6.87919C29.8031 7.12929 29.6288 7.32937 29.3549 7.42941C29.33 7.42941 29.3051 7.45442 29.2802 7.4044V7.37939C29.0312 8.00464 28.6825 8.55486 28.2592 9.05506C28.558 8.55486 28.8071 8.02965 28.9814 7.50444C29.2304 6.82917 29.3549 6.12889 29.2304 5.37859C29.1806 5.50364 29.1308 5.62869 29.0561 5.75374C28.4833 6.70412 27.562 7.27935 26.566 7.55446C26.068 7.67951 25.545 7.77955 25.0221 7.77955C24.8478 7.77955 24.6486 7.77955 24.4743 7.77955C24.3996 7.77955 24.3 7.75454 24.2253 7.75454C23.8269 7.70452 23.7771 7.67951 24.051 7.72953L23.9514 7.70452C22.9803 7.55446 21.785 7.37939 21.0878 6.50404C20.4155 5.67871 20.3408 4.67831 20.6396 3.75294C20.5649 3.82797 20.4902 3.92801 20.4155 4.00304C20.042 4.45322 19.7183 4.95342 19.5191 5.47863C19.4444 5.62869 19.3697 5.77875 19.295 5.92881C19.3946 5.30356 19.6934 4.67831 20.1167 4.10308C20.0669 4.10308 20.0171 4.05306 19.9922 4.00304C19.8428 3.57787 20.1167 3.00264 20.2412 2.60248C20.5898 1.50204 20.1167 2.60248 19.9922 2.82757C19.8428 3.07767 19.7183 3.42781 19.5191 3.6529C19.3946 3.77795 19.1705 3.82797 19.1206 3.60288C18.9961 3.20272 18.9463 2.77755 18.8965 2.32737C18.8467 2.72753 18.7969 3.12769 18.7471 3.52785C18.7222 3.72793 18.6973 3.92801 18.6724 4.1531C18.772 4.47823 18.8218 4.77835 18.8467 5.10348V5.07847C18.7969 4.87839 18.7471 4.70332 18.6973 4.50324C18.6973 4.45322 18.6724 4.4032 18.6724 4.35318V4.37819C18.6226 4.22813 18.5728 4.07807 18.523 3.92801C18.523 3.903 18.523 3.903 18.523 3.87799C18.274 3.22773 17.9254 2.62749 17.4772 2.27735C17.4523 2.27735 17.4523 2.25234 17.4274 2.25234C17.7511 2.87759 17.9254 3.62789 17.8756 4.25314C17.776 5.77875 16.9294 6.9042 15.6345 7.45442C14.5638 7.9046 13.1445 7.87959 12.1982 7.10428C11.4761 6.47903 11.1026 5.6537 11.003 4.72833C10.9781 4.9034 10.9532 5.07847 10.9781 5.25354C10.9283 5.60368 10.9283 5.97883 10.9532 6.35398C10.9781 6.72913 11.003 7.17931 11.0777 7.60448C10.9034 7.17931 10.7789 6.72913 10.7291 6.27895C10.4801 6.07887 10.3307 5.57867 10.2062 5.35358C10.1066 5.10348 9.95716 4.85338 9.85756 4.60328C9.93226 4.87839 10.007 5.17851 10.0817 5.45362C10.1813 5.82877 10.505 6.67911 10.256 7.05426C9.95716 7.50444 9.55875 7.12929 9.28484 6.82917C9.23504 6.77915 9.18524 6.70412 9.13544 6.6541C9.28484 6.87919 9.45915 7.10428 9.60855 7.35438C9.88246 7.75454 10.1813 8.17971 10.3307 8.6549C10.4801 8.75494 10.6295 8.87999 10.754 9.03005C10.6793 8.98003 10.6295 8.93001 10.5548 8.87999C10.8287 9.10508 11.0528 9.43021 11.2271 9.80537C11.7998 11.1059 11.7002 13.0567 10.2809 13.7319C8.71212 14.4822 6.54575 13.957 6.09754 11.9312C5.77383 10.5056 6.42125 9.05506 7.56669 8.50484C7.09357 8.6549 6.67026 8.93001 6.34655 9.33017C5.49992 10.3306 5.07661 11.6061 5.47502 12.9316C5.72403 13.7569 6.04774 14.3072 6.57066 14.7573C6.76986 14.9824 7.01887 15.1575 7.24298 15.3326C7.11847 15.2826 6.96907 15.2575 6.84456 15.2075C6.72006 15.2575 6.62046 15.2826 6.52085 15.3076C4.47899 15.8578 2.41223 16.2579 0.370361 16.8082C1.01778 16.7331 1.6901 16.6581 2.33752 16.5581C2.91024 16.483 3.48296 16.408 4.03078 16.5831C4.10548 16.6081 4.05568 16.7331 4.03078 16.7581C3.95607 16.8582 3.85647 16.9332 3.78177 17.0082C4.40429 16.8082 5.54972 16.508 5.62443 16.9582C5.72403 17.5835 4.9272 18.2087 4.55369 18.5589C3.68217 19.3842 2.66123 20.0094 1.715 20.7097C1.29169 21.0098 0.893278 21.335 0.469964 21.6601C2.06361 20.7597 3.63236 19.8344 5.32562 19.1341C5.69913 18.984 6.74496 18.5839 7.29278 18.809C7.56669 17.1083 8.73702 15.7577 10.1066 14.7573C10.4054 14.5072 10.7042 14.2822 11.0528 14.1071C11.1773 14.0321 11.3267 14.007 11.4512 13.957C11.7002 13.882 11.9741 13.882 12.2231 13.957C12.1982 13.857 12.1484 13.7319 12.1484 13.6069C12.0488 13.0567 12.0239 12.6065 12.1484 12.0563C12.2231 11.6061 12.4721 11.0559 12.8208 10.7557C13.0449 10.5557 13.2939 10.3806 13.5429 10.2555C13.5429 10.1055 13.5678 9.98043 13.5927 9.83037C13.6923 9.48023 13.8666 9.1551 14.1156 8.905C14.3148 8.70492 14.5389 8.55486 14.8128 8.47983L15.2361 8.42981C15.6096 8.42981 15.9832 8.57987 16.2571 8.85498C16.4563 9.00504 16.6306 9.18011 16.7551 9.43021C16.78 9.45522 16.78 9.50524 16.8049 9.53025C17.3278 8.905 18.0001 8.4048 18.8218 8.07967C21.038 7.17931 23.1795 8.32977 24.1008 10.5807C24.8229 10.1805 25.6945 10.0555 26.3917 10.3556C26.4166 10.3556 26.4166 10.3556 26.4415 10.3806C26.8648 10.5557 27.2134 10.8808 27.4873 11.381C28.0351 12.4814 27.8857 14.0821 26.7652 14.7073C26.1178 15.0575 25.3458 15.0825 24.6735 14.8074C24.8229 15.0825 24.9225 15.3576 24.9972 15.6577C25.6696 18.4588 23.2542 20.6847 20.8139 20.5096C20.1665 20.4596 19.4942 20.2846 18.9463 19.9344C18.9214 19.9594 18.8965 20.0094 18.8467 20.0345C18.0001 20.9098 16.8796 21.1599 15.759 20.9848C14.6883 20.8098 13.5927 19.8594 13.4433 18.6339C13.4433 18.6089 13.4433 18.6089 13.4433 18.5839C13.2939 18.3088 13.1943 17.9836 13.1445 17.6585C13.0698 17.8336 13.02 17.9836 12.9453 18.1337C12.5468 18.959 11.9492 19.7844 11.2271 20.3096C10.2809 20.9598 9.01093 20.8848 8.41331 19.7593C7.9402 18.834 8.1394 17.5585 8.56272 16.6581C8.73702 16.2579 9.01093 15.9328 9.28484 15.6577C9.40934 15.5076 9.53385 15.3326 9.68325 15.2075C8.58762 16.2079 7.66629 17.6085 7.64139 19.1591C7.66629 19.2341 7.66629 19.3342 7.66629 19.4592C7.66629 19.4842 7.66629 19.4842 7.64139 19.5092C7.64139 19.6593 7.66629 19.8094 7.69119 19.9844C7.79079 20.6597 8.0398 21.385 8.46311 21.9602C8.78682 22.5105 9.28484 22.9356 10.0319 23.0607C10.4054 23.1357 10.9532 22.8606 11.3018 22.7355C11.3765 22.7105 11.4761 22.6855 11.5757 22.6355C11.1773 22.9856 10.6793 23.2607 10.1813 23.3608C10.1813 23.3858 10.1813 23.4108 10.2062 23.4608C10.256 23.961 9.60855 24.5863 9.30974 24.8364C8.68722 25.4366 7.99 25.9118 7.26788 26.362C7.11847 26.462 6.96907 26.5371 6.81966 26.6371C6.94417 26.5621 7.06867 26.487 7.21808 26.412C7.49198 26.262 7.76589 26.1119 8.0647 26.0369C9.16034 25.8368 8.76192 26.7872 8.38841 27.4874C7.69119 28.7379 6.76986 29.8884 5.99794 31.0889C7.01887 29.7634 8.0647 28.4128 9.35954 27.4874C9.73305 27.2123 10.4801 26.5871 10.9532 26.9122C11.2022 27.0873 11.3267 27.3374 11.3765 27.6125C11.4263 27.3874 11.4761 27.1373 11.6006 26.9372C11.003 25.7618 10.9532 24.2862 11.6504 23.0357C11.6753 23.0106 11.7251 23.0107 11.7002 23.0607C10.9781 24.8864 11.8496 27.4624 13.5927 28.2127C14.4144 28.5629 15.3855 28.6129 16.1824 28.1377C16.9792 27.6875 17.4523 26.9872 17.7511 26.1369C17.8258 26.0119 17.9254 25.8868 18.0001 25.7618C17.9005 26.312 17.7013 26.8622 17.4025 27.3124C17.4274 27.3124 17.4523 27.3124 17.4772 27.3124C17.8258 27.3124 18.0001 28.1877 18.0499 28.4378C18.2242 29.3632 18.1993 30.2886 18.1495 31.2139C18.0997 31.8892 18.1744 31.1139 18.1993 31.0389C18.2242 30.8638 18.2491 30.6887 18.274 30.5137C18.3238 30.2385 18.3985 29.9884 18.4981 29.7133C18.9712 28.5629 19.7183 30.4136 19.8428 30.7638C20.291 31.9642 20.5898 33.1897 20.8637 34.4402C20.7143 33.5649 20.5898 32.6895 20.5649 31.7892C20.54 30.8888 20.4155 29.8384 20.5898 28.963C20.6396 28.6379 20.8388 28.0627 21.2372 28.1127C21.5609 28.1377 21.7601 28.3378 21.9095 28.5879C21.7601 28.0627 21.6605 27.4874 21.8597 27.0873C21.287 26.7872 20.8886 26.337 20.5151 25.7868C21.1376 26.487 21.8846 27.0373 22.8309 27.0123C23.055 27.0123 23.2542 26.9872 23.4285 26.9372C23.6028 26.9122 23.7522 26.8622 23.9265 26.7872C25.2711 26.1369 25.8937 24.7614 25.8937 23.2608C25.9186 23.0357 25.9684 22.8106 25.9933 22.5855C26.1427 23.3858 26.1427 24.1611 25.9684 24.8864C26.1676 24.8364 26.5162 25.1865 26.6158 25.3116C26.815 25.5617 26.9893 25.8368 27.1387 26.1369C27.0391 25.9618 26.9644 25.6867 26.9644 25.4866C26.9644 25.3366 26.9146 25.1115 27.064 25.0115C27.5869 24.6113 28.5829 26.362 28.7822 26.6621C29.0063 27.0373 29.2055 27.4124 29.3798 27.7876C29.1059 27.0373 28.9067 26.287 28.9316 25.5117C28.9316 25.2866 29.081 25.0365 29.3051 24.9864C29.7284 24.8864 30.077 25.2866 30.3509 25.6617C30.0023 24.7113 29.4296 23.4608 30.1019 22.7355C29.4047 22.9106 28.6825 22.8356 28.06 22.4104C28.4335 22.4854 28.832 22.5355 29.2304 22.5355C29.7284 22.5605 30.2513 22.4354 30.7493 22.1603C31.6208 21.6851 32.4426 20.8598 32.4177 19.7093C32.3928 18.1837 31.4465 17.1833 30.2264 16.9582C30.077 16.8832 29.9276 16.8582 29.7782 16.8082C30.9485 16.7331 32.094 17.2834 32.592 18.3088C32.7912 18.1337 33.0402 18.0587 33.339 18.0337C34.1358 17.9586 35.1069 18.1587 35.9038 18.3338C36.3022 18.4088 36.6757 18.5088 37.0741 18.5839C36.6757 18.2838 36.352 18.1587 36.0532 18.0337ZM16.3069 26.7622C15.2112 27.6625 12.9453 27.6625 12.3227 26.0869C11.8745 24.9614 12.2231 23.761 13.1445 23.0607C13.8168 22.5355 14.6883 22.4604 15.4602 22.6355C15.7341 22.6855 15.9583 22.8606 16.1077 23.0857C16.6057 23.3358 17.1286 23.911 17.2033 24.5113C17.3278 25.4616 17.0041 26.1869 16.3069 26.7622ZM22.8309 25.4116C22.0589 25.4366 21.1874 25.0865 20.7641 24.3362C20.4155 23.7109 20.4404 22.8606 20.8388 22.2604C21.5858 21.1349 23.055 20.4846 24.3 20.9098C24.4743 20.9598 24.6237 21.0599 24.7482 21.1599C25.1964 21.335 25.57 21.7101 25.7194 22.2854C26.1925 24.1361 24.2751 25.3616 22.8309 25.4116ZM31.8698 18.5088C32.2434 19.6843 31.3718 20.8348 30.3509 21.0349C29.0063 21.31 26.7403 21.1849 26.3668 19.3842C26.1178 18.2587 26.8399 17.1583 27.8608 16.9332C28.3837 16.6831 28.9814 16.6581 29.5541 16.7331C30.5252 16.8832 31.4963 17.3834 31.8698 18.5088Z" fill="#D07400"/>
<path d="M7.44031 14.9077C6.44428 14.4575 5.59765 13.4321 5.27394 12.3066C5.29884 12.5067 5.34864 12.6818 5.39844 12.8819C5.64745 13.7072 5.97116 14.2574 6.49408 14.7076C6.69329 14.9327 6.94229 15.1078 7.1664 15.2828C7.0419 15.2328 6.89249 15.2078 6.76799 15.1578C6.71819 15.1828 6.66838 15.2078 6.59368 15.2078C6.76799 15.3579 6.89249 15.5579 6.94229 15.8581C6.99209 16.3333 6.69329 16.8084 6.41938 17.1586C5.57275 18.234 4.42731 18.9593 3.33168 19.7096C2.75896 20.0848 2.18624 20.4849 1.63843 20.9101C2.80876 20.2598 4.004 19.6096 5.24904 19.0844C5.62255 18.9343 6.66838 18.5341 7.2162 18.7592C7.44031 17.3587 8.26203 16.1832 9.33277 15.2578C8.71025 15.2578 8.06283 15.1828 7.44031 14.9077Z" fill="#D5801B"/>
<path d="M35.2559 18.0331C34.6085 17.808 34.0109 17.4829 33.3884 17.2078C33.0148 17.0327 32.467 16.9577 32.1433 16.6826C31.6453 16.2324 32.716 15.9573 32.9401 15.9072C33.3386 15.8072 33.7121 15.6822 34.1105 15.5821C33.7619 15.5571 33.4382 15.4571 33.1891 15.257C33.0646 15.1569 32.9899 15.0569 32.965 14.9569C32.5417 15.4571 31.9939 15.8322 31.3963 16.1073C31.471 16.0323 31.5706 15.9323 31.6453 15.8322C32.7907 15.0819 33.4382 13.9815 33.6374 12.5559C33.2888 13.3812 32.5168 14.1315 31.9939 14.5817C31.1224 15.307 30.1762 15.8322 29.1552 16.2824C28.9062 16.4074 28.6323 16.5075 28.3833 16.6325C28.4082 16.6325 28.458 16.6325 28.4829 16.6075C28.9809 16.5325 29.5038 16.5325 30.0267 16.6325C31.0726 16.6575 32.0686 17.2078 32.5168 18.1331C32.716 17.9581 32.965 17.883 33.2639 17.858C33.9113 17.808 34.6832 17.9331 35.3555 18.0581C35.3306 18.0581 35.2808 18.0581 35.2559 18.0331Z" fill="#D5801B"/>
<path d="M27.7355 11.0562C27.86 11.2313 27.9347 11.4313 28.0094 11.6314C28.0094 11.2813 28.0592 10.9561 28.2086 10.606C28.4078 10.1308 28.7066 9.68063 29.105 9.40552C29.2295 9.30548 29.3789 9.23045 29.5283 9.15542C29.4287 9.18043 29.3291 9.20545 29.2544 9.25547C29.0801 9.30549 28.9058 9.3555 28.7315 9.40552C28.5572 9.48055 28.3829 9.55558 28.2086 9.65562C28.7564 9.25546 29.4038 8.95535 30.0512 8.80529C30.2504 8.43014 30.6987 8.25506 31.0224 8.02997C31.3959 7.80488 31.7445 7.55479 32.0931 7.30469C32.0931 7.30469 32.118 7.27967 32.1429 7.27967C31.8939 7.40472 31.62 7.52978 31.371 7.67984C31.2216 7.77988 31.0722 7.8549 30.9228 7.90492C30.8979 7.92993 30.8481 7.95495 30.8232 7.95495C30.35 8.23006 29.7773 8.63022 29.2295 8.55519C29.1797 8.55519 29.1299 8.48016 29.1299 8.43014C29.1299 8.05499 29.2544 7.72985 29.4038 7.40472C29.3789 7.40472 29.354 7.42974 29.3291 7.42974C29.3042 7.42974 29.2793 7.45474 29.2544 7.40472V7.37971C29.0054 8.00496 28.6568 8.55519 28.2335 9.05539C28.5323 8.55519 28.7813 8.02997 28.9556 7.50476C29.1797 6.90452 29.3042 6.27927 29.2295 5.604C29.0303 7.57979 27.4367 9.28048 25.6687 10.1058C25.6936 10.1058 25.7185 10.1058 25.7434 10.1058C26.4655 10.0058 27.3869 10.506 27.7355 11.0562Z" fill="#D5801B"/>
<path d="M13.3696 8.70394C13.0708 8.72895 12.772 8.70394 12.4732 8.57889C11.2779 8.1037 10.9542 6.72815 10.9293 5.3776C10.9044 5.70273 10.9044 6.02787 10.9044 6.353C10.9293 6.72815 10.9542 7.17833 11.0289 7.6035C10.8546 7.17833 10.7301 6.72815 10.6803 6.27796C10.4313 6.07788 10.2819 5.57769 10.1574 5.3526C10.0578 5.1025 9.9084 4.8524 9.80879 4.60229C9.8835 4.87741 9.9582 5.17753 10.0329 5.45264C10.1325 5.82779 10.4562 6.67813 10.2072 7.05328C9.9084 7.50346 9.50998 7.12831 9.23608 6.82819C9.18627 6.77817 9.13647 6.70314 9.08667 6.65312C9.23607 6.87821 9.41038 7.1033 9.55979 7.3534C9.83369 7.75356 10.1325 8.17873 10.2819 8.65392C10.4313 8.75396 10.5807 8.87901 10.7052 9.02907C10.6305 8.97905 10.5807 8.92903 10.506 8.87901C10.5309 8.90402 10.5309 8.90402 10.5558 8.92903C11.2779 9.47925 11.7013 10.4796 11.8507 11.5301C11.9752 11.1049 12.2491 10.8048 12.6226 10.5797C12.5479 9.8544 12.8716 9.12911 13.3696 8.70394Z" fill="#D5801B"/>
<path d="M19.9407 6.10399C19.8909 5.22864 20.1648 4.52836 20.5632 3.8781C20.5881 3.82808 20.5881 3.77806 20.613 3.72804C20.5383 3.80307 20.4636 3.90311 20.3889 3.97814C20.0154 4.42832 19.6917 4.92852 19.4925 5.45373C19.4178 5.60379 19.3431 5.75385 19.2683 5.90391C19.368 5.27866 19.6668 4.65341 20.0901 4.07818C20.0403 4.07818 19.9905 4.02816 19.9656 3.97814C19.8162 3.55297 20.0901 2.97774 20.2146 2.57758C20.5632 1.47714 20.0901 2.57758 19.9656 2.80267C19.8162 3.05277 19.6917 3.40291 19.4925 3.628C19.368 3.75305 19.1438 3.80307 19.094 3.57798C18.9695 3.17782 18.9197 2.75265 18.8699 2.30247C18.8201 2.70263 18.7703 3.10279 18.7205 3.50295C18.6956 3.70303 18.6707 3.90311 18.6458 4.1282C18.7454 4.45333 18.7952 4.75345 18.8201 5.07858V5.05357C18.7703 4.85349 18.7205 4.67842 18.6707 4.47834C18.6707 4.42832 18.6458 4.3783 18.6458 4.32828V4.35329C18.596 4.20323 18.5462 4.05317 18.4964 3.90311C18.4964 3.8781 18.4964 3.8781 18.4964 3.85309C18.347 3.45293 18.1478 3.07778 17.9237 2.75265C17.9984 2.92772 18.0731 3.1278 18.1229 3.27786C18.4715 4.20323 18.6209 5.22864 18.4964 6.22904C18.4217 6.77926 18.2972 7.27946 18.098 7.75465C18.347 7.55457 18.6209 7.40451 18.8948 7.30447C19.368 7.15441 19.8162 7.10439 20.2644 7.17942C20.0901 6.90431 19.9656 6.52916 19.9407 6.10399Z" fill="#D5801B"/>
<path d="M25.1707 24.9358C24.5979 25.461 23.8011 25.9362 23.0541 26.0862C22.3071 26.2363 21.4854 26.0862 20.9375 25.436C20.6636 25.1108 20.4893 24.7357 20.4644 24.3605C20.1158 24.6106 19.7672 24.8107 19.3688 24.8857C18.6965 25.0358 18.1487 24.8107 17.7253 24.3355C17.8498 25.6861 16.9285 27.0866 15.7831 27.5368C14.4633 28.087 12.9693 27.5618 12.2223 26.2613C11.8737 25.611 11.6993 24.9107 11.9733 24.1855C12.1476 23.6853 12.6207 23.2851 13.044 23.01C13.6167 22.6098 14.4135 22.2097 15.1855 22.1596C14.1894 21.7845 13.2432 20.8841 12.9195 19.7837C12.546 20.7841 11.8986 21.6594 10.9523 22.0346C10.1306 22.3597 9.28397 22.3847 8.53695 22.0096C8.86066 22.4598 9.33377 22.8099 9.95629 22.9099C10.3298 22.985 10.8776 22.7099 11.2262 22.5848C11.3009 22.5598 11.4005 22.5348 11.5001 22.4848C11.1017 22.8349 10.6037 23.11 10.1057 23.2101C10.1057 23.2351 10.1057 23.2601 10.1306 23.3101C10.1306 23.3351 10.1306 23.3601 10.1306 23.3851C10.3298 23.3351 10.5041 23.3601 10.6535 23.4352C11.2511 23.7853 10.1306 25.2609 9.93139 25.586C9.50808 26.2363 9.10967 26.9366 8.66145 27.5868C8.43735 27.9119 8.18834 28.2371 7.93933 28.5372C8.36264 28.087 8.81086 27.6869 9.30887 27.3367C9.68239 27.0616 10.4294 26.4364 10.9025 26.7615C11.1515 26.9366 11.276 27.1867 11.3258 27.4618C11.3756 27.2367 11.4254 26.9866 11.5499 26.7865C10.9523 25.611 10.9025 24.1354 11.5997 22.8849C11.6246 22.8599 11.6744 22.8599 11.6495 22.9099C10.9274 24.7357 11.799 27.3117 13.542 28.062C14.3637 28.4121 15.3349 28.4622 16.1317 27.987C16.9285 27.5368 17.4016 26.8365 17.7004 25.9862C17.7751 25.8611 17.8747 25.7361 17.9494 25.611C17.8498 26.1612 17.6506 26.7115 17.3518 27.1616C17.3767 27.1616 17.4016 27.1616 17.4265 27.1616C17.7751 27.1616 17.9494 28.037 17.9992 28.2871C18.1736 29.2125 18.1487 30.1378 18.0988 31.0632C18.049 31.7385 18.1237 30.9632 18.1487 30.8881C18.1736 30.7131 18.1985 30.538 18.2234 30.3629C18.2732 30.0878 18.3479 29.8377 18.4475 29.5626C18.9206 28.4121 19.6676 30.2629 19.7921 30.613C20.2403 31.8135 20.5391 33.039 20.813 34.2895C20.6636 33.4141 20.5391 32.5388 20.5142 31.6384C20.4893 30.7381 20.3648 29.6877 20.5391 28.8123C20.5889 28.4872 20.7881 27.9119 21.1865 27.962C21.5103 27.987 21.7095 28.1871 21.8589 28.4372C21.7095 27.9119 21.6099 27.3367 21.8091 26.9366C21.2363 26.6364 20.8379 26.1863 20.4644 25.636C21.0869 26.3363 21.834 26.8865 22.7802 26.8615C23.0043 26.8615 23.2035 26.8365 23.3778 26.7865C23.5521 26.7615 23.7015 26.7115 23.8758 26.6364C24.9217 26.1112 25.5442 25.1608 25.7683 24.0604C25.6189 24.4105 25.4197 24.7107 25.1707 24.9358Z" fill="#D5801B"/>
<path d="M28.4067 21.8105C27.0621 21.6605 25.1696 20.9352 24.6467 19.4346C24.5222 19.6597 24.3728 19.8597 24.1985 20.0348C25.0949 20.585 25.7672 21.6104 25.8917 22.7359C25.9166 22.6359 25.9166 22.5608 25.9166 22.4608C26.066 23.2611 26.066 24.0364 25.8917 24.7617C26.0909 24.7117 26.4396 25.0618 26.5392 25.1869C26.7384 25.437 26.9127 25.7121 27.0621 26.0122C26.9625 25.8371 26.8878 25.562 26.8878 25.3619C26.8878 25.2119 26.838 24.9868 26.9874 24.8868C27.5103 24.4866 28.5063 26.2373 28.7055 26.5374C28.9296 26.9126 29.1288 27.2877 29.3031 27.6629C29.0292 26.9126 28.83 26.1623 28.8549 25.387C28.8549 25.1619 29.0043 24.9118 29.2284 24.8617C29.6518 24.7617 30.0004 25.1619 30.2743 25.537C29.9257 24.5866 29.3529 23.3361 30.0253 22.6108C29.328 22.7859 28.6059 22.7109 27.9834 22.2857C28.3569 22.3607 28.7553 22.4108 29.1537 22.4108C29.6518 22.4358 30.1747 22.3107 30.6727 22.0356C31.1458 21.7605 31.6189 21.4104 31.9177 20.9352C30.9964 21.7105 29.6767 21.9356 28.4067 21.8105Z" fill="#D5801B"/>
<path d="M13.2681 10.1063C13.0689 10.0563 12.8697 10.0813 12.7203 10.1313C12.8448 9.00588 13.8906 8.28059 14.9115 8.35562C14.9364 8.35562 14.9862 8.35562 15.0111 8.35562C15.1605 8.35562 15.31 8.38063 15.4594 8.43065C16.0819 8.60572 16.5301 8.98087 16.8538 9.48107C16.5301 8.28059 15.31 7.58031 14.2143 7.98047C13.3926 8.28059 12.4464 9.15594 12.5709 10.1814C12.048 10.4315 11.7491 11.1067 11.6993 11.782C11.7491 12.0821 11.8238 12.3822 11.9732 12.6824C11.6993 11.707 12.1725 10.4064 13.1934 10.3314C13.293 10.3314 13.4175 10.1313 13.2681 10.1063Z" fill="#EED017"/>
<path d="M26.814 10.5814C26.9883 10.6814 27.1377 10.8065 27.2622 10.9565C27.7851 11.5068 27.9594 12.207 27.8847 12.9073C27.8847 13.1074 27.8847 13.3325 27.8847 13.5326C28.2333 12.6322 28.308 11.6318 27.6855 10.7815C27.1128 9.98114 26.1666 9.90612 25.3698 10.2062C25.8927 10.1812 26.3907 10.3063 26.814 10.5814Z" fill="#EED017"/>
<path d="M14.9381 22.0103C13.942 21.6602 13.1452 20.8099 13.0954 19.6844C13.0705 19.5344 13.0456 19.3593 13.0207 19.2092C12.5476 21.16 14.191 23.0108 16.0337 22.3855C15.6602 22.3105 15.2867 22.1854 14.9381 22.0103Z" fill="#EED017"/>
<path d="M24.7491 18.1838C24.7242 18.4589 24.6495 18.7341 24.5499 18.9842C24.4254 19.6594 23.9772 20.2347 23.3547 20.4347C23.0808 20.6098 22.7571 20.7098 22.4583 20.6598C22.4583 20.6598 22.4583 20.6848 22.4832 20.6848C23.1057 21.185 23.8776 20.7349 24.3258 20.1846C24.7989 19.6094 24.9483 18.8841 24.7491 18.1838Z" fill="#EED017"/>
<path d="M21.9093 11.131C20.988 11.131 20.3904 11.6813 20.1165 12.4065C19.469 11.7563 18.5975 11.3311 17.726 11.3061C17.4272 11.1811 17.1035 11.106 16.8046 11.081C15.5596 10.956 14.1901 12.0564 13.6921 13.2569C12.9948 14.9576 13.5675 16.6082 15.1861 17.2835C15.4849 17.4085 15.8086 17.4836 16.1323 17.5586C15.7837 18.4089 16.1572 19.6344 17.2529 19.6344C18.4232 19.6344 18.7718 18.2589 18.2987 17.4085C19.0706 17.1084 19.5686 16.4081 20.1663 15.8079C20.3655 15.6078 20.5149 15.3827 20.6145 15.1076C20.9382 15.4077 21.3615 15.6078 21.9093 15.6078C24.5488 15.6078 24.5488 11.131 21.9093 11.131Z" fill="#FFFAD8"/>
<path d="M23.9781 20.3336L23.505 20.0835C21.4881 19.9085 19.6952 21.8092 20.6663 23.1098C22.3098 25.3357 25.8955 22.2344 23.9781 20.3336Z" fill="#FFFAD8"/>
<path d="M23.0786 4.62853L23.0537 5.35382C24.0746 7.90484 27.4612 8.90524 28.4323 6.95446C30.1006 3.57811 24.1991 1.17715 23.0786 4.62853Z" fill="#FFFAD8"/>
<path d="M8.23682 13.8574L8.70993 13.6823C10.0795 12.3067 9.78067 9.85575 8.28662 9.75571C5.64714 9.58064 5.69694 14.0824 8.23682 13.8574Z" fill="#FFFAD8"/>
</svg>
